<svg xmlns="http://www.w3.org/2000/svg" xmlns:xlink="http://www.w3.org/1999/xlink" width="500" zoomAndPan="magnify" viewBox="0 0 375 187.499995" height="250" preserveAspectRatio="xMidYMid meet" version="1.0"><defs><g/><clipPath id="96e95983c4"><path d="M 12.527344 21.59375 L 368 21.59375 L 368 165.410156 L 12.527344 165.410156 Z M 12.527344 21.59375 " clip-rule="nonzero"/></clipPath><clipPath id="5f20113814"><path d="M 29.734375 21.59375 L 350.738281 21.59375 C 355.300781 21.59375 359.675781 23.40625 362.902344 26.632812 C 366.128906 29.859375 367.941406 34.234375 367.941406 38.796875 L 367.941406 148.203125 C 367.941406 152.765625 366.128906 157.144531 362.902344 160.371094 C 359.675781 163.597656 355.300781 165.410156 350.738281 165.410156 L 29.734375 165.410156 C 25.167969 165.410156 20.792969 163.597656 17.566406 160.371094 C 14.339844 157.144531 12.527344 152.765625 12.527344 148.203125 L 12.527344 38.796875 C 12.527344 34.234375 14.339844 29.859375 17.566406 26.632812 C 20.792969 23.40625 25.167969 21.59375 29.734375 21.59375 Z M 29.734375 21.59375 " clip-rule="nonzero"/></clipPath><clipPath id="dd84a2973e"><path d="M 7.058594 21.59375 L 362.558594 21.59375 L 362.558594 163.128906 L 7.058594 163.128906 Z M 7.058594 21.59375 " clip-rule="nonzero"/></clipPath><clipPath id="9fbcc3d63c"><path d="M 24.261719 21.59375 L 345.265625 21.59375 C 349.832031 21.59375 354.207031 23.40625 357.433594 26.632812 C 360.660156 29.859375 362.472656 34.234375 362.472656 38.796875 L 362.472656 145.925781 C 362.472656 150.488281 360.660156 154.863281 357.433594 158.089844 C 354.207031 161.316406 349.832031 163.128906 345.265625 163.128906 L 24.261719 163.128906 C 19.699219 163.128906 15.324219 161.316406 12.097656 158.089844 C 8.871094 154.863281 7.058594 150.488281 7.058594 145.925781 L 7.058594 38.796875 C 7.058594 34.234375 8.871094 29.859375 12.097656 26.632812 C 15.324219 23.40625 19.699219 21.59375 24.261719 21.59375 Z M 24.261719 21.59375 " clip-rule="nonzero"/></clipPath><clipPath id="964c100440"><path d="M 17.230469 29.679688 L 356.46875 29.679688 L 356.46875 157.171875 L 17.230469 157.171875 Z M 17.230469 29.679688 " clip-rule="nonzero"/></clipPath><clipPath id="241e805873"><path d="M 34.433594 29.679688 L 339.460938 29.679688 C 344.023438 29.679688 348.402344 31.492188 351.628906 34.71875 C 354.851562 37.945312 356.664062 42.320312 356.664062 46.882812 L 356.664062 140.148438 C 356.664062 144.710938 354.851562 149.089844 351.628906 152.316406 C 348.402344 155.539062 344.023438 157.351562 339.460938 157.351562 L 34.433594 157.351562 C 29.871094 157.351562 25.496094 155.539062 22.269531 152.316406 C 19.042969 149.089844 17.230469 144.710938 17.230469 140.148438 L 17.230469 46.882812 C 17.230469 42.320312 19.042969 37.945312 22.269531 34.71875 C 25.496094 31.492188 29.871094 29.679688 34.433594 29.679688 Z M 34.433594 29.679688 " clip-rule="nonzero"/></clipPath></defs><g clip-path="url(#96e95983c4)"><g clip-path="url(#5f20113814)"><path fill="#1c1412" d="M 12.527344 21.59375 L 368.136719 21.59375 L 368.136719 165.410156 L 12.527344 165.410156 Z M 12.527344 21.59375 " fill-opacity="1" fill-rule="nonzero"/></g></g><g clip-path="url(#dd84a2973e)"><g clip-path="url(#9fbcc3d63c)"><path fill="#e7e4cb" d="M 7.058594 21.59375 L 362.558594 21.59375 L 362.558594 163.128906 L 7.058594 163.128906 Z M 7.058594 21.59375 " fill-opacity="1" fill-rule="nonzero"/></g></g><g clip-path="url(#964c100440)"><g clip-path="url(#241e805873)"><path stroke-linecap="butt" transform="matrix(0.732709, 0, 0, 0.732709, 17.230496, 29.678579)" fill="none" stroke-linejoin="miter" d="M 23.478743 0.00151271 L 439.779271 0.00151271 C 446.006159 0.00151271 451.982479 2.475208 456.386083 6.878812 C 460.784356 11.282416 463.258052 17.253405 463.258052 23.480293 L 463.258052 150.768976 C 463.258052 156.995865 460.784356 162.972184 456.386083 167.375789 C 451.982479 171.774061 446.006159 174.247757 439.779271 174.247757 L 23.478743 174.247757 C 17.251855 174.247757 11.280866 171.774061 6.877262 167.375789 C 2.473658 162.972184 -0.0000372689 156.995865 -0.0000372689 150.768976 L -0.0000372689 23.480293 C -0.0000372689 17.253405 2.473658 11.282416 6.877262 6.878812 C 11.280866 2.475208 17.251855 0.00151271 23.478743 0.00151271 Z M 23.478743 0.00151271 " stroke="#1c1412" stroke-width="8.167006" stroke-opacity="1" stroke-miterlimit="4"/></g></g><g fill="#1c1412" fill-opacity="1"><g transform="translate(74.195747, 108.678534)"><g><path d="M 15.171875 0.234375 C 14.304688 0.078125 13.429688 -0.0351562 12.546875 -0.109375 C 11.660156 -0.191406 10.546875 -0.234375 9.203125 -0.234375 C 7.960938 -0.234375 6.894531 -0.191406 6 -0.109375 C 5.113281 -0.0351562 4.296875 0.0507812 3.546875 0.15625 C 1.929688 0.425781 1.257812 -0.269531 1.53125 -1.9375 C 1.800781 -3.4375 2.097656 -5.53125 2.421875 -8.21875 C 2.742188 -10.914062 3.035156 -13.984375 3.296875 -17.421875 C 3.566406 -20.867188 3.703125 -24.472656 3.703125 -28.234375 C 3.703125 -31.992188 3.566406 -35.59375 3.296875 -39.03125 C 3.035156 -42.476562 2.742188 -45.546875 2.421875 -48.234375 C 2.097656 -50.929688 1.800781 -53.03125 1.53125 -54.53125 C 1.257812 -56.195312 1.929688 -56.894531 3.546875 -56.625 C 4.296875 -56.519531 5.113281 -56.425781 6 -56.34375 C 6.894531 -56.269531 7.960938 -56.234375 9.203125 -56.234375 C 10.546875 -56.234375 11.660156 -56.269531 12.546875 -56.34375 C 13.429688 -56.425781 14.304688 -56.550781 15.171875 -56.71875 C 16.785156 -56.875 17.457031 -56.171875 17.1875 -54.609375 C 16.96875 -53.109375 16.679688 -51.007812 16.328125 -48.3125 C 15.984375 -45.625 15.675781 -42.5625 15.40625 -39.125 C 15.132812 -35.6875 15 -32.054688 15 -28.234375 C 15 -24.472656 15.132812 -20.867188 15.40625 -17.421875 C 15.675781 -13.984375 15.984375 -10.914062 16.328125 -8.21875 C 16.679688 -5.53125 16.96875 -3.410156 17.1875 -1.859375 C 17.457031 -0.296875 16.785156 0.398438 15.171875 0.234375 Z M 15.171875 0.234375 "/></g></g></g><g fill="#e7e4cb" fill-opacity="1"><g transform="translate(70.630232, 105.113016)"><g><path d="M 15.171875 0.234375 C 14.304688 0.078125 13.429688 -0.0351562 12.546875 -0.109375 C 11.660156 -0.191406 10.546875 -0.234375 9.203125 -0.234375 C 7.960938 -0.234375 6.894531 -0.191406 6 -0.109375 C 5.113281 -0.0351562 4.296875 0.0507812 3.546875 0.15625 C 1.929688 0.425781 1.257812 -0.269531 1.53125 -1.9375 C 1.800781 -3.4375 2.097656 -5.53125 2.421875 -8.21875 C 2.742188 -10.914062 3.035156 -13.984375 3.296875 -17.421875 C 3.566406 -20.867188 3.703125 -24.472656 3.703125 -28.234375 C 3.703125 -31.992188 3.566406 -35.59375 3.296875 -39.03125 C 3.035156 -42.476562 2.742188 -45.546875 2.421875 -48.234375 C 2.097656 -50.929688 1.800781 -53.03125 1.53125 -54.53125 C 1.257812 -56.195312 1.929688 -56.894531 3.546875 -56.625 C 4.296875 -56.519531 5.113281 -56.425781 6 -56.34375 C 6.894531 -56.269531 7.960938 -56.234375 9.203125 -56.234375 C 10.546875 -56.234375 11.660156 -56.269531 12.546875 -56.34375 C 13.429688 -56.425781 14.304688 -56.550781 15.171875 -56.71875 C 16.785156 -56.875 17.457031 -56.171875 17.1875 -54.609375 C 16.96875 -53.109375 16.679688 -51.007812 16.328125 -48.3125 C 15.984375 -45.625 15.675781 -42.5625 15.40625 -39.125 C 15.132812 -35.6875 15 -32.054688 15 -28.234375 C 15 -24.472656 15.132812 -20.867188 15.40625 -17.421875 C 15.675781 -13.984375 15.984375 -10.914062 16.328125 -8.21875 C 16.679688 -5.53125 16.96875 -3.410156 17.1875 -1.859375 C 17.457031 -0.296875 16.785156 0.398438 15.171875 0.234375 Z M 15.171875 0.234375 "/></g></g></g><g fill="#1c1412" fill-opacity="1"><g transform="translate(37.215066, 108.678534)"><g><path d="M 14.515625 0.15625 C 12.847656 0.425781 12.148438 -0.242188 12.421875 -1.859375 C 12.585938 -3.410156 12.800781 -5.53125 13.0625 -8.21875 C 13.332031 -10.914062 13.601562 -13.984375 13.875 -17.421875 C 14.144531 -20.867188 14.332031 -24.472656 14.4375 -28.234375 C 14.550781 -31.734375 14.507812 -35.023438 14.3125 -38.109375 C 14.125 -41.203125 13.898438 -43.960938 13.640625 -46.390625 C 12.285156 -46.492188 10.75 -46.382812 9.03125 -46.0625 C 7.3125 -45.738281 5.40625 -45.144531 3.3125 -44.28125 C 2.613281 -44.019531 2.035156 -44.035156 1.578125 -44.328125 C 1.117188 -44.617188 0.914062 -45.171875 0.96875 -45.984375 C 1.070312 -47.921875 1.132812 -49.476562 1.15625 -50.65625 C 1.1875 -51.84375 1.148438 -53.160156 1.046875 -54.609375 C 0.992188 -55.367188 1.15625 -55.9375 1.53125 -56.3125 C 1.90625 -56.6875 2.441406 -56.820312 3.140625 -56.71875 C 4.753906 -56.5 6.191406 -56.375 7.453125 -56.34375 C 8.722656 -56.320312 10.269531 -56.3125 12.09375 -56.3125 L 28 -56.3125 C 29.875 -56.3125 31.429688 -56.320312 32.671875 -56.34375 C 33.910156 -56.375 35.335938 -56.5 36.953125 -56.71875 C 37.648438 -56.820312 38.195312 -56.695312 38.59375 -56.34375 C 39 -56 39.148438 -55.453125 39.046875 -54.703125 C 38.992188 -53.296875 38.953125 -51.894531 38.921875 -50.5 C 38.898438 -49.101562 38.941406 -47.570312 39.046875 -45.90625 C 39.097656 -45.144531 38.90625 -44.617188 38.46875 -44.328125 C 38.039062 -44.035156 37.453125 -44.019531 36.703125 -44.28125 C 32.617188 -45.894531 29.257812 -46.597656 26.625 -46.390625 C 26.351562 -43.960938 26.109375 -41.203125 25.890625 -38.109375 C 25.679688 -35.023438 25.578125 -31.734375 25.578125 -28.234375 C 25.578125 -24.472656 25.695312 -20.867188 25.9375 -17.421875 C 26.175781 -13.984375 26.457031 -10.914062 26.78125 -8.21875 C 27.101562 -5.53125 27.375 -3.410156 27.59375 -1.859375 C 27.863281 -0.242188 27.191406 0.425781 25.578125 0.15625 C 24.765625 0.0507812 23.925781 -0.0351562 23.0625 -0.109375 C 22.207031 -0.191406 21.132812 -0.234375 19.84375 -0.234375 C 18.601562 -0.234375 17.578125 -0.191406 16.765625 -0.109375 C 15.960938 -0.0351562 15.210938 0.0507812 14.515625 0.15625 Z M 14.515625 0.15625 "/></g></g></g><g fill="#1c1412" fill-opacity="1"><g transform="translate(77.308303, 108.678534)"><g/></g></g><g fill="#1c1412" fill-opacity="1"><g transform="translate(93.4424, 108.678534)"><g><path d="M 20.578125 0.5625 C 18.742188 0.5625 16.832031 0.453125 14.84375 0.234375 C 12.851562 0.0234375 11 -0.128906 9.28125 -0.234375 C 7.9375 -0.234375 6.789062 -0.191406 5.84375 -0.109375 C 4.90625 -0.0351562 4.0625 0.0507812 3.3125 0.15625 C 2.550781 0.269531 1.984375 0.140625 1.609375 -0.234375 C 1.234375 -0.617188 1.128906 -1.210938 1.296875 -2.015625 C 1.554688 -3.523438 1.890625 -5.609375 2.296875 -8.265625 C 2.703125 -10.929688 3.050781 -13.984375 3.34375 -17.421875 C 3.644531 -20.867188 3.796875 -24.472656 3.796875 -28.234375 C 3.796875 -32.054688 3.644531 -35.6875 3.34375 -39.125 C 3.050781 -42.5625 2.703125 -45.625 2.296875 -48.3125 C 1.890625 -51.007812 1.554688 -53.082031 1.296875 -54.53125 C 0.972656 -56.144531 1.617188 -56.898438 3.234375 -56.796875 C 5.484375 -56.679688 8.019531 -56.703125 10.84375 -56.859375 C 13.664062 -57.023438 16.078125 -57.082031 18.078125 -57.03125 C 24.046875 -56.976562 28.707031 -55.429688 32.0625 -52.390625 C 35.425781 -49.359375 37.109375 -44.773438 37.109375 -38.640625 C 37.109375 -35.847656 36.515625 -33.5625 35.328125 -31.78125 C 34.148438 -30.007812 32.644531 -28.585938 30.8125 -27.515625 C 33.5 -27.296875 35.726562 -26.109375 37.5 -23.953125 C 39.28125 -21.804688 40.171875 -18.984375 40.171875 -15.484375 C 40.171875 -11.179688 39.28125 -7.859375 37.5 -5.515625 C 35.726562 -3.179688 33.363281 -1.582031 30.40625 -0.71875 C 27.445312 0.132812 24.171875 0.5625 20.578125 0.5625 Z M 15.40625 -29.4375 L 17.265625 -29.4375 C 19.734375 -29.4375 21.757812 -30.203125 23.34375 -31.734375 C 24.9375 -33.273438 25.734375 -35.578125 25.734375 -38.640625 C 25.734375 -41.703125 25.234375 -43.90625 24.234375 -45.25 C 23.242188 -46.601562 22.023438 -47.28125 20.578125 -47.28125 C 19.390625 -47.28125 18.320312 -46.78125 17.375 -45.78125 C 16.4375 -44.78125 15.78125 -43.421875 15.40625 -41.703125 C 15.03125 -39.828125 14.9375 -37.878906 15.125 -35.859375 C 15.3125 -33.835938 15.40625 -31.695312 15.40625 -29.4375 Z M 20.96875 -9.359375 C 22.53125 -9.359375 23.832031 -9.921875 24.875 -11.046875 C 25.925781 -12.179688 26.453125 -14.007812 26.453125 -16.53125 C 26.453125 -19.0625 25.632812 -20.957031 24 -22.21875 C 22.363281 -23.488281 20.195312 -24.125 17.5 -24.125 L 15.5625 -24.125 C 15.5625 -22.238281 15.492188 -20.460938 15.359375 -18.796875 C 15.234375 -17.128906 15.382812 -15.515625 15.8125 -13.953125 C 16.1875 -12.554688 16.84375 -11.441406 17.78125 -10.609375 C 18.726562 -9.773438 19.789062 -9.359375 20.96875 -9.359375 Z M 20.96875 -9.359375 "/></g></g></g><g fill="#1c1412" fill-opacity="1"><g transform="translate(134.019674, 108.678534)"><g><path d="M 20.578125 1.203125 C 17.773438 1.203125 15.054688 0.691406 12.421875 -0.328125 C 9.785156 -1.347656 7.617188 -3.066406 5.921875 -5.484375 C 4.234375 -7.898438 3.390625 -11.179688 3.390625 -15.328125 L 3.390625 -28.3125 C 3.390625 -32.082031 3.238281 -35.671875 2.9375 -39.078125 C 2.644531 -42.492188 2.3125 -45.546875 1.9375 -48.234375 C 1.5625 -50.929688 1.210938 -53.054688 0.890625 -54.609375 C 0.617188 -56.222656 1.289062 -56.894531 2.90625 -56.625 C 3.65625 -56.519531 4.5 -56.425781 5.4375 -56.34375 C 6.382812 -56.269531 7.53125 -56.234375 8.875 -56.234375 C 10 -56.234375 10.867188 -56.242188 11.484375 -56.265625 C 12.109375 -56.296875 12.6875 -56.347656 13.21875 -56.421875 C 13.757812 -56.503906 14.4375 -56.601562 15.25 -56.71875 C 16.863281 -56.875 17.507812 -56.171875 17.1875 -54.609375 C 16.914062 -53.210938 16.59375 -51.128906 16.21875 -48.359375 C 15.84375 -45.585938 15.503906 -42.453125 15.203125 -38.953125 C 14.910156 -35.460938 14.765625 -31.914062 14.765625 -28.3125 C 14.765625 -24.875 14.960938 -21.78125 15.359375 -19.03125 C 15.765625 -16.289062 16.382812 -14.113281 17.21875 -12.5 C 18.050781 -10.882812 19.140625 -10.078125 20.484375 -10.078125 C 21.617188 -10.078125 22.5625 -10.867188 23.3125 -12.453125 C 24.0625 -14.046875 24.625 -16.195312 25 -18.90625 C 25.382812 -21.625 25.578125 -24.65625 25.578125 -28 C 25.578125 -33.90625 25.28125 -39.171875 24.6875 -43.796875 C 24.09375 -48.429688 23.582031 -51.984375 23.15625 -54.453125 C 22.882812 -56.171875 23.53125 -56.894531 25.09375 -56.625 C 25.945312 -56.519531 26.832031 -56.425781 27.75 -56.34375 C 28.664062 -56.269531 29.796875 -56.234375 31.140625 -56.234375 C 32.328125 -56.234375 33.238281 -56.242188 33.875 -56.265625 C 34.519531 -56.296875 35.082031 -56.347656 35.5625 -56.421875 C 36.050781 -56.503906 36.675781 -56.601562 37.4375 -56.71875 C 38.1875 -56.820312 38.75 -56.6875 39.125 -56.3125 C 39.5 -55.9375 39.609375 -55.34375 39.453125 -54.53125 C 39.179688 -53.03125 38.84375 -50.945312 38.4375 -48.28125 C 38.03125 -45.613281 37.691406 -42.570312 37.421875 -39.15625 C 37.160156 -35.75 37.003906 -32.132812 36.953125 -28.3125 L 36.859375 -14.765625 C 36.859375 -10.785156 36.078125 -7.625 34.515625 -5.28125 C 32.960938 -2.945312 30.945312 -1.28125 28.46875 -0.28125 C 26 0.707031 23.367188 1.203125 20.578125 1.203125 Z M 20.578125 1.203125 "/></g></g></g><g fill="#1c1412" fill-opacity="1"><g transform="translate(174.35493, 108.678534)"><g><path d="M 15.65625 0.234375 C 14.738281 0.078125 13.804688 -0.0351562 12.859375 -0.109375 C 11.921875 -0.191406 10.726562 -0.234375 9.28125 -0.234375 C 7.9375 -0.234375 6.789062 -0.191406 5.84375 -0.109375 C 4.90625 -0.0351562 4.0625 0.0507812 3.3125 0.15625 C 2.550781 0.269531 1.984375 0.140625 1.609375 -0.234375 C 1.234375 -0.617188 1.128906 -1.1875 1.296875 -1.9375 C 1.617188 -3.5 1.96875 -5.609375 2.34375 -8.265625 C 2.71875 -10.929688 3.050781 -13.984375 3.34375 -17.421875 C 3.644531 -20.867188 3.796875 -24.472656 3.796875 -28.234375 C 3.796875 -31.992188 3.644531 -35.59375 3.34375 -39.03125 C 3.050781 -42.476562 2.71875 -45.5625 2.34375 -48.28125 C 1.96875 -51 1.617188 -53.109375 1.296875 -54.609375 C 0.972656 -56.171875 1.644531 -56.875 3.3125 -56.71875 C 5.132812 -56.5 6.734375 -56.414062 8.109375 -56.46875 C 9.484375 -56.519531 10.878906 -56.625 12.296875 -56.78125 C 13.722656 -56.945312 15.378906 -57.03125 17.265625 -57.03125 C 23.503906 -56.976562 28.25 -55.378906 31.5 -52.234375 C 34.757812 -49.085938 36.390625 -44.53125 36.390625 -38.5625 C 36.390625 -34.957031 35.78125 -31.941406 34.5625 -29.515625 C 33.351562 -27.097656 31.617188 -25.21875 29.359375 -23.875 C 31.566406 -22.476562 33.316406 -20.703125 34.609375 -18.546875 C 35.898438 -16.398438 36.679688 -14.570312 36.953125 -13.0625 C 37.328125 -10.96875 37.796875 -8.925781 38.359375 -6.9375 C 38.921875 -4.945312 39.445312 -3.304688 39.9375 -2.015625 C 40.414062 -0.347656 39.796875 0.398438 38.078125 0.234375 C 37.109375 0.128906 36.054688 0.0390625 34.921875 -0.03125 C 33.796875 -0.113281 32.535156 -0.15625 31.140625 -0.15625 C 29.847656 -0.15625 28.820312 -0.128906 28.0625 -0.078125 C 27.3125 -0.0234375 26.613281 0.0507812 25.96875 0.15625 C 24.519531 0.375 23.957031 -0.296875 24.28125 -1.859375 C 24.550781 -2.773438 24.765625 -3.957031 24.921875 -5.40625 C 25.085938 -6.851562 25.171875 -8.628906 25.171875 -10.734375 C 25.171875 -13.578125 24.1875 -15.765625 22.21875 -17.296875 C 20.257812 -18.835938 17.960938 -19.796875 15.328125 -20.171875 C 15.546875 -15.972656 15.878906 -12.300781 16.328125 -9.15625 C 16.785156 -6.007812 17.175781 -3.601562 17.5 -1.9375 C 17.820312 -0.320312 17.207031 0.398438 15.65625 0.234375 Z M 15.171875 -25.890625 L 17.265625 -25.890625 C 19.628906 -25.890625 21.507812 -26.9375 22.90625 -29.03125 C 24.3125 -31.132812 25.015625 -34.3125 25.015625 -38.5625 C 25.015625 -41.675781 24.582031 -43.90625 23.71875 -45.25 C 22.851562 -46.601562 21.5625 -47.28125 19.84375 -47.28125 C 18.820312 -47.28125 17.929688 -46.847656 17.171875 -45.984375 C 16.421875 -45.117188 15.914062 -44.070312 15.65625 -42.84375 C 15.164062 -40.257812 14.960938 -37.515625 15.046875 -34.609375 C 15.128906 -31.703125 15.171875 -28.796875 15.171875 -25.890625 Z M 15.171875 -25.890625 "/></g></g></g><g fill="#1c1412" fill-opacity="1"><g transform="translate(215.093548, 108.678534)"><g><path d="M 15.65625 0.234375 C 14.738281 0.078125 13.804688 -0.0351562 12.859375 -0.109375 C 11.921875 -0.191406 10.726562 -0.234375 9.28125 -0.234375 C 7.9375 -0.234375 6.789062 -0.191406 5.84375 -0.109375 C 4.90625 -0.0351562 4.0625 0.0507812 3.3125 0.15625 C 2.550781 0.269531 1.984375 0.140625 1.609375 -0.234375 C 1.234375 -0.617188 1.128906 -1.1875 1.296875 -1.9375 C 1.617188 -3.5 1.96875 -5.609375 2.34375 -8.265625 C 2.71875 -10.929688 3.050781 -13.984375 3.34375 -17.421875 C 3.644531 -20.867188 3.796875 -24.472656 3.796875 -28.234375 C 3.796875 -31.992188 3.644531 -35.59375 3.34375 -39.03125 C 3.050781 -42.476562 2.71875 -45.5625 2.34375 -48.28125 C 1.96875 -51 1.617188 -53.109375 1.296875 -54.609375 C 0.972656 -56.171875 1.644531 -56.875 3.3125 -56.71875 C 5.132812 -56.5 6.734375 -56.414062 8.109375 -56.46875 C 9.484375 -56.519531 10.878906 -56.625 12.296875 -56.78125 C 13.722656 -56.945312 15.378906 -57.03125 17.265625 -57.03125 C 23.503906 -56.976562 28.25 -55.378906 31.5 -52.234375 C 34.757812 -49.085938 36.390625 -44.53125 36.390625 -38.5625 C 36.390625 -34.957031 35.78125 -31.941406 34.5625 -29.515625 C 33.351562 -27.097656 31.617188 -25.21875 29.359375 -23.875 C 31.566406 -22.476562 33.316406 -20.703125 34.609375 -18.546875 C 35.898438 -16.398438 36.679688 -14.570312 36.953125 -13.0625 C 37.328125 -10.96875 37.796875 -8.925781 38.359375 -6.9375 C 38.921875 -4.945312 39.445312 -3.304688 39.9375 -2.015625 C 40.414062 -0.347656 39.796875 0.398438 38.078125 0.234375 C 37.109375 0.128906 36.054688 0.0390625 34.921875 -0.03125 C 33.796875 -0.113281 32.535156 -0.15625 31.140625 -0.15625 C 29.847656 -0.15625 28.820312 -0.128906 28.0625 -0.078125 C 27.3125 -0.0234375 26.613281 0.0507812 25.96875 0.15625 C 24.519531 0.375 23.957031 -0.296875 24.28125 -1.859375 C 24.550781 -2.773438 24.765625 -3.957031 24.921875 -5.40625 C 25.085938 -6.851562 25.171875 -8.628906 25.171875 -10.734375 C 25.171875 -13.578125 24.1875 -15.765625 22.21875 -17.296875 C 20.257812 -18.835938 17.960938 -19.796875 15.328125 -20.171875 C 15.546875 -15.972656 15.878906 -12.300781 16.328125 -9.15625 C 16.785156 -6.007812 17.175781 -3.601562 17.5 -1.9375 C 17.820312 -0.320312 17.207031 0.398438 15.65625 0.234375 Z M 15.171875 -25.890625 L 17.265625 -25.890625 C 19.628906 -25.890625 21.507812 -26.9375 22.90625 -29.03125 C 24.3125 -31.132812 25.015625 -34.3125 25.015625 -38.5625 C 25.015625 -41.675781 24.582031 -43.90625 23.71875 -45.25 C 22.851562 -46.601562 21.5625 -47.28125 19.84375 -47.28125 C 18.820312 -47.28125 17.929688 -46.847656 17.171875 -45.984375 C 16.421875 -45.117188 15.914062 -44.070312 15.65625 -42.84375 C 15.164062 -40.257812 14.960938 -37.515625 15.046875 -34.609375 C 15.128906 -31.703125 15.171875 -28.796875 15.171875 -25.890625 Z M 15.171875 -25.890625 "/></g></g></g><g fill="#1c1412" fill-opacity="1"><g transform="translate(255.832167, 108.678534)"><g><path d="M 20.65625 1.203125 C 14.519531 1.203125 9.726562 -1.203125 6.28125 -6.015625 C 2.84375 -10.828125 1.125 -18.257812 1.125 -28.3125 C 1.125 -37.507812 2.84375 -44.703125 6.28125 -49.890625 C 9.726562 -55.085938 14.519531 -57.6875 20.65625 -57.6875 C 22.320312 -57.6875 23.71875 -57.601562 24.84375 -57.4375 C 25.976562 -57.28125 27.039062 -57.117188 28.03125 -56.953125 C 29.03125 -56.796875 30.117188 -56.742188 31.296875 -56.796875 C 32.804688 -56.898438 33.476562 -56.226562 33.3125 -54.78125 C 33.101562 -52.789062 32.941406 -50.648438 32.828125 -48.359375 C 32.722656 -46.078125 32.695312 -43.882812 32.75 -41.78125 C 32.800781 -40.875 32.613281 -40.363281 32.1875 -40.25 C 31.757812 -40.144531 31.25 -40.46875 30.65625 -41.21875 C 27.914062 -44.664062 25.226562 -46.390625 22.59375 -46.390625 C 20.113281 -46.390625 18.082031 -44.722656 16.5 -41.390625 C 14.914062 -38.054688 14.125 -33.59375 14.125 -28 C 14.125 -24.65625 14.484375 -21.625 15.203125 -18.90625 C 15.929688 -16.195312 16.941406 -14.046875 18.234375 -12.453125 C 19.523438 -10.867188 20.976562 -10.078125 22.59375 -10.078125 C 23.988281 -10.078125 25.34375 -10.476562 26.65625 -11.28125 C 27.976562 -12.09375 29.421875 -13.550781 30.984375 -15.65625 C 31.566406 -16.40625 32.019531 -16.738281 32.34375 -16.65625 C 32.664062 -16.570312 32.800781 -16.078125 32.75 -15.171875 C 32.695312 -13.015625 32.738281 -10.753906 32.875 -8.390625 C 33.007812 -6.023438 33.15625 -3.789062 33.3125 -1.6875 C 33.476562 -0.238281 32.78125 0.429688 31.21875 0.328125 C 30.09375 0.265625 29.03125 0.3125 28.03125 0.46875 C 27.039062 0.632812 25.976562 0.796875 24.84375 0.953125 C 23.71875 1.117188 22.320312 1.203125 20.65625 1.203125 Z M 20.65625 1.203125 "/></g></g></g><g fill="#1c1412" fill-opacity="1"><g transform="translate(290.439824, 108.678534)"><g><path d="M 15.171875 0.234375 C 14.304688 0.078125 13.429688 -0.0351562 12.546875 -0.109375 C 11.660156 -0.191406 10.546875 -0.234375 9.203125 -0.234375 C 7.960938 -0.234375 6.894531 -0.191406 6 -0.109375 C 5.113281 -0.0351562 4.296875 0.0507812 3.546875 0.15625 C 1.929688 0.425781 1.257812 -0.269531 1.53125 -1.9375 C 1.800781 -3.4375 2.097656 -5.53125 2.421875 -8.21875 C 2.742188 -10.914062 3.035156 -13.984375 3.296875 -17.421875 C 3.566406 -20.867188 3.703125 -24.472656 3.703125 -28.234375 C 3.703125 -31.992188 3.566406 -35.59375 3.296875 -39.03125 C 3.035156 -42.476562 2.742188 -45.546875 2.421875 -48.234375 C 2.097656 -50.929688 1.800781 -53.03125 1.53125 -54.53125 C 1.257812 -56.195312 1.929688 -56.894531 3.546875 -56.625 C 4.296875 -56.519531 5.113281 -56.425781 6 -56.34375 C 6.894531 -56.269531 7.960938 -56.234375 9.203125 -56.234375 C 10.546875 -56.234375 11.660156 -56.269531 12.546875 -56.34375 C 13.429688 -56.425781 14.304688 -56.550781 15.171875 -56.71875 C 16.785156 -56.875 17.457031 -56.171875 17.1875 -54.609375 C 16.96875 -53.109375 16.679688 -51.007812 16.328125 -48.3125 C 15.984375 -45.625 15.675781 -42.5625 15.40625 -39.125 C 15.132812 -35.6875 15 -32.054688 15 -28.234375 C 15 -24.472656 15.132812 -20.867188 15.40625 -17.421875 C 15.675781 -13.984375 15.984375 -10.914062 16.328125 -8.21875 C 16.679688 -5.53125 16.96875 -3.410156 17.1875 -1.859375 C 17.457031 -0.296875 16.785156 0.398438 15.171875 0.234375 Z M 15.171875 0.234375 "/></g></g></g><g fill="#1c1412" fill-opacity="1"><g transform="translate(309.155378, 108.678534)"><g><path d="M 20.65625 1.203125 C 14.46875 1.203125 9.648438 -1.203125 6.203125 -6.015625 C 2.765625 -10.828125 1.046875 -18.257812 1.046875 -28.3125 C 1.046875 -37.507812 2.765625 -44.703125 6.203125 -49.890625 C 9.648438 -55.085938 14.46875 -57.6875 20.65625 -57.6875 C 26.832031 -57.6875 31.628906 -55.085938 35.046875 -49.890625 C 38.460938 -44.703125 40.171875 -37.507812 40.171875 -28.3125 C 40.171875 -18.257812 38.460938 -10.828125 35.046875 -6.015625 C 31.628906 -1.203125 26.832031 1.203125 20.65625 1.203125 Z M 20.578125 -10.078125 C 21.921875 -10.078125 23.078125 -10.867188 24.046875 -12.453125 C 25.015625 -14.046875 25.765625 -16.195312 26.296875 -18.90625 C 26.835938 -21.625 27.109375 -24.65625 27.109375 -28 C 27.109375 -33.59375 26.515625 -38.054688 25.328125 -41.390625 C 24.148438 -44.722656 22.566406 -46.390625 20.578125 -46.390625 C 18.585938 -46.390625 17 -44.722656 15.8125 -41.390625 C 14.625 -38.054688 14.03125 -33.59375 14.03125 -28 C 14.03125 -24.65625 14.300781 -21.625 14.84375 -18.90625 C 15.382812 -16.195312 16.148438 -14.046875 17.140625 -12.453125 C 18.140625 -10.867188 19.285156 -10.078125 20.578125 -10.078125 Z M 20.578125 -10.078125 "/></g></g></g><g fill="#fe8995" fill-opacity="1"><g transform="translate(33.649546, 105.113016)"><g><path d="M 14.515625 0.15625 C 12.847656 0.425781 12.148438 -0.242188 12.421875 -1.859375 C 12.585938 -3.410156 12.800781 -5.53125 13.0625 -8.21875 C 13.332031 -10.914062 13.601562 -13.984375 13.875 -17.421875 C 14.144531 -20.867188 14.332031 -24.472656 14.4375 -28.234375 C 14.550781 -31.734375 14.507812 -35.023438 14.3125 -38.109375 C 14.125 -41.203125 13.898438 -43.960938 13.640625 -46.390625 C 12.285156 -46.492188 10.75 -46.382812 9.03125 -46.0625 C 7.3125 -45.738281 5.40625 -45.144531 3.3125 -44.28125 C 2.613281 -44.019531 2.035156 -44.035156 1.578125 -44.328125 C 1.117188 -44.617188 0.914062 -45.171875 0.96875 -45.984375 C 1.070312 -47.921875 1.132812 -49.476562 1.15625 -50.65625 C 1.1875 -51.84375 1.148438 -53.160156 1.046875 -54.609375 C 0.992188 -55.367188 1.15625 -55.9375 1.53125 -56.3125 C 1.90625 -56.6875 2.441406 -56.820312 3.140625 -56.71875 C 4.753906 -56.5 6.191406 -56.375 7.453125 -56.34375 C 8.722656 -56.320312 10.269531 -56.3125 12.09375 -56.3125 L 28 -56.3125 C 29.875 -56.3125 31.429688 -56.320312 32.671875 -56.34375 C 33.910156 -56.375 35.335938 -56.5 36.953125 -56.71875 C 37.648438 -56.820312 38.195312 -56.695312 38.59375 -56.34375 C 39 -56 39.148438 -55.453125 39.046875 -54.703125 C 38.992188 -53.296875 38.953125 -51.894531 38.921875 -50.5 C 38.898438 -49.101562 38.941406 -47.570312 39.046875 -45.90625 C 39.097656 -45.144531 38.90625 -44.617188 38.46875 -44.328125 C 38.039062 -44.035156 37.453125 -44.019531 36.703125 -44.28125 C 32.617188 -45.894531 29.257812 -46.597656 26.625 -46.390625 C 26.351562 -43.960938 26.109375 -41.203125 25.890625 -38.109375 C 25.679688 -35.023438 25.578125 -31.734375 25.578125 -28.234375 C 25.578125 -24.472656 25.695312 -20.867188 25.9375 -17.421875 C 26.175781 -13.984375 26.457031 -10.914062 26.78125 -8.21875 C 27.101562 -5.53125 27.375 -3.410156 27.59375 -1.859375 C 27.863281 -0.242188 27.191406 0.425781 25.578125 0.15625 C 24.765625 0.0507812 23.925781 -0.0351562 23.0625 -0.109375 C 22.207031 -0.191406 21.132812 -0.234375 19.84375 -0.234375 C 18.601562 -0.234375 17.578125 -0.191406 16.765625 -0.109375 C 15.960938 -0.0351562 15.210938 0.0507812 14.515625 0.15625 Z M 14.515625 0.15625 "/></g></g></g><g fill="#fe8995" fill-opacity="1"><g transform="translate(73.742783, 105.113016)"><g/></g></g><g fill="#fe8995" fill-opacity="1"><g transform="translate(89.87688, 105.113016)"><g><path d="M 20.578125 0.5625 C 18.742188 0.5625 16.832031 0.453125 14.84375 0.234375 C 12.851562 0.0234375 11 -0.128906 9.28125 -0.234375 C 7.9375 -0.234375 6.789062 -0.191406 5.84375 -0.109375 C 4.90625 -0.0351562 4.0625 0.0507812 3.3125 0.15625 C 2.550781 0.269531 1.984375 0.140625 1.609375 -0.234375 C 1.234375 -0.617188 1.128906 -1.210938 1.296875 -2.015625 C 1.554688 -3.523438 1.890625 -5.609375 2.296875 -8.265625 C 2.703125 -10.929688 3.050781 -13.984375 3.34375 -17.421875 C 3.644531 -20.867188 3.796875 -24.472656 3.796875 -28.234375 C 3.796875 -32.054688 3.644531 -35.6875 3.34375 -39.125 C 3.050781 -42.5625 2.703125 -45.625 2.296875 -48.3125 C 1.890625 -51.007812 1.554688 -53.082031 1.296875 -54.53125 C 0.972656 -56.144531 1.617188 -56.898438 3.234375 -56.796875 C 5.484375 -56.679688 8.019531 -56.703125 10.84375 -56.859375 C 13.664062 -57.023438 16.078125 -57.082031 18.078125 -57.03125 C 24.046875 -56.976562 28.707031 -55.429688 32.0625 -52.390625 C 35.425781 -49.359375 37.109375 -44.773438 37.109375 -38.640625 C 37.109375 -35.847656 36.515625 -33.5625 35.328125 -31.78125 C 34.148438 -30.007812 32.644531 -28.585938 30.8125 -27.515625 C 33.5 -27.296875 35.726562 -26.109375 37.5 -23.953125 C 39.28125 -21.804688 40.171875 -18.984375 40.171875 -15.484375 C 40.171875 -11.179688 39.28125 -7.859375 37.5 -5.515625 C 35.726562 -3.179688 33.363281 -1.582031 30.40625 -0.71875 C 27.445312 0.132812 24.171875 0.5625 20.578125 0.5625 Z M 15.40625 -29.4375 L 17.265625 -29.4375 C 19.734375 -29.4375 21.757812 -30.203125 23.34375 -31.734375 C 24.9375 -33.273438 25.734375 -35.578125 25.734375 -38.640625 C 25.734375 -41.703125 25.234375 -43.90625 24.234375 -45.25 C 23.242188 -46.601562 22.023438 -47.28125 20.578125 -47.28125 C 19.390625 -47.28125 18.320312 -46.78125 17.375 -45.78125 C 16.4375 -44.78125 15.78125 -43.421875 15.40625 -41.703125 C 15.03125 -39.828125 14.9375 -37.878906 15.125 -35.859375 C 15.3125 -33.835938 15.40625 -31.695312 15.40625 -29.4375 Z M 20.96875 -9.359375 C 22.53125 -9.359375 23.832031 -9.921875 24.875 -11.046875 C 25.925781 -12.179688 26.453125 -14.007812 26.453125 -16.53125 C 26.453125 -19.0625 25.632812 -20.957031 24 -22.21875 C 22.363281 -23.488281 20.195312 -24.125 17.5 -24.125 L 15.5625 -24.125 C 15.5625 -22.238281 15.492188 -20.460938 15.359375 -18.796875 C 15.234375 -17.128906 15.382812 -15.515625 15.8125 -13.953125 C 16.1875 -12.554688 16.84375 -11.441406 17.78125 -10.609375 C 18.726562 -9.773438 19.789062 -9.359375 20.96875 -9.359375 Z M 20.96875 -9.359375 "/></g></g></g><g fill="#fe8995" fill-opacity="1"><g transform="translate(130.454154, 105.113016)"><g><path d="M 20.578125 1.203125 C 17.773438 1.203125 15.054688 0.691406 12.421875 -0.328125 C 9.785156 -1.347656 7.617188 -3.066406 5.921875 -5.484375 C 4.234375 -7.898438 3.390625 -11.179688 3.390625 -15.328125 L 3.390625 -28.3125 C 3.390625 -32.082031 3.238281 -35.671875 2.9375 -39.078125 C 2.644531 -42.492188 2.3125 -45.546875 1.9375 -48.234375 C 1.5625 -50.929688 1.210938 -53.054688 0.890625 -54.609375 C 0.617188 -56.222656 1.289062 -56.894531 2.90625 -56.625 C 3.65625 -56.519531 4.5 -56.425781 5.4375 -56.34375 C 6.382812 -56.269531 7.53125 -56.234375 8.875 -56.234375 C 10 -56.234375 10.867188 -56.242188 11.484375 -56.265625 C 12.109375 -56.296875 12.6875 -56.347656 13.21875 -56.421875 C 13.757812 -56.503906 14.4375 -56.601562 15.25 -56.71875 C 16.863281 -56.875 17.507812 -56.171875 17.1875 -54.609375 C 16.914062 -53.210938 16.59375 -51.128906 16.21875 -48.359375 C 15.84375 -45.585938 15.503906 -42.453125 15.203125 -38.953125 C 14.910156 -35.460938 14.765625 -31.914062 14.765625 -28.3125 C 14.765625 -24.875 14.960938 -21.78125 15.359375 -19.03125 C 15.765625 -16.289062 16.382812 -14.113281 17.21875 -12.5 C 18.050781 -10.882812 19.140625 -10.078125 20.484375 -10.078125 C 21.617188 -10.078125 22.5625 -10.867188 23.3125 -12.453125 C 24.0625 -14.046875 24.625 -16.195312 25 -18.90625 C 25.382812 -21.625 25.578125 -24.65625 25.578125 -28 C 25.578125 -33.90625 25.28125 -39.171875 24.6875 -43.796875 C 24.09375 -48.429688 23.582031 -51.984375 23.15625 -54.453125 C 22.882812 -56.171875 23.53125 -56.894531 25.09375 -56.625 C 25.945312 -56.519531 26.832031 -56.425781 27.75 -56.34375 C 28.664062 -56.269531 29.796875 -56.234375 31.140625 -56.234375 C 32.328125 -56.234375 33.238281 -56.242188 33.875 -56.265625 C 34.519531 -56.296875 35.082031 -56.347656 35.5625 -56.421875 C 36.050781 -56.503906 36.675781 -56.601562 37.4375 -56.71875 C 38.1875 -56.820312 38.75 -56.6875 39.125 -56.3125 C 39.5 -55.9375 39.609375 -55.34375 39.453125 -54.53125 C 39.179688 -53.03125 38.84375 -50.945312 38.4375 -48.28125 C 38.03125 -45.613281 37.691406 -42.570312 37.421875 -39.15625 C 37.160156 -35.75 37.003906 -32.132812 36.953125 -28.3125 L 36.859375 -14.765625 C 36.859375 -10.785156 36.078125 -7.625 34.515625 -5.28125 C 32.960938 -2.945312 30.945312 -1.28125 28.46875 -0.28125 C 26 0.707031 23.367188 1.203125 20.578125 1.203125 Z M 20.578125 1.203125 "/></g></g></g><g fill="#fe8995" fill-opacity="1"><g transform="translate(170.78941, 105.113016)"><g><path d="M 15.65625 0.234375 C 14.738281 0.078125 13.804688 -0.0351562 12.859375 -0.109375 C 11.921875 -0.191406 10.726562 -0.234375 9.28125 -0.234375 C 7.9375 -0.234375 6.789062 -0.191406 5.84375 -0.109375 C 4.90625 -0.0351562 4.0625 0.0507812 3.3125 0.15625 C 2.550781 0.269531 1.984375 0.140625 1.609375 -0.234375 C 1.234375 -0.617188 1.128906 -1.1875 1.296875 -1.9375 C 1.617188 -3.5 1.96875 -5.609375 2.34375 -8.265625 C 2.71875 -10.929688 3.050781 -13.984375 3.34375 -17.421875 C 3.644531 -20.867188 3.796875 -24.472656 3.796875 -28.234375 C 3.796875 -31.992188 3.644531 -35.59375 3.34375 -39.03125 C 3.050781 -42.476562 2.71875 -45.5625 2.34375 -48.28125 C 1.96875 -51 1.617188 -53.109375 1.296875 -54.609375 C 0.972656 -56.171875 1.644531 -56.875 3.3125 -56.71875 C 5.132812 -56.5 6.734375 -56.414062 8.109375 -56.46875 C 9.484375 -56.519531 10.878906 -56.625 12.296875 -56.78125 C 13.722656 -56.945312 15.378906 -57.03125 17.265625 -57.03125 C 23.503906 -56.976562 28.25 -55.378906 31.5 -52.234375 C 34.757812 -49.085938 36.390625 -44.53125 36.390625 -38.5625 C 36.390625 -34.957031 35.78125 -31.941406 34.5625 -29.515625 C 33.351562 -27.097656 31.617188 -25.21875 29.359375 -23.875 C 31.566406 -22.476562 33.316406 -20.703125 34.609375 -18.546875 C 35.898438 -16.398438 36.679688 -14.570312 36.953125 -13.0625 C 37.328125 -10.96875 37.796875 -8.925781 38.359375 -6.9375 C 38.921875 -4.945312 39.445312 -3.304688 39.9375 -2.015625 C 40.414062 -0.347656 39.796875 0.398438 38.078125 0.234375 C 37.109375 0.128906 36.054688 0.0390625 34.921875 -0.03125 C 33.796875 -0.113281 32.535156 -0.15625 31.140625 -0.15625 C 29.847656 -0.15625 28.820312 -0.128906 28.0625 -0.078125 C 27.3125 -0.0234375 26.613281 0.0507812 25.96875 0.15625 C 24.519531 0.375 23.957031 -0.296875 24.28125 -1.859375 C 24.550781 -2.773438 24.765625 -3.957031 24.921875 -5.40625 C 25.085938 -6.851562 25.171875 -8.628906 25.171875 -10.734375 C 25.171875 -13.578125 24.1875 -15.765625 22.21875 -17.296875 C 20.257812 -18.835938 17.960938 -19.796875 15.328125 -20.171875 C 15.546875 -15.972656 15.878906 -12.300781 16.328125 -9.15625 C 16.785156 -6.007812 17.175781 -3.601562 17.5 -1.9375 C 17.820312 -0.320312 17.207031 0.398438 15.65625 0.234375 Z M 15.171875 -25.890625 L 17.265625 -25.890625 C 19.628906 -25.890625 21.507812 -26.9375 22.90625 -29.03125 C 24.3125 -31.132812 25.015625 -34.3125 25.015625 -38.5625 C 25.015625 -41.675781 24.582031 -43.90625 23.71875 -45.25 C 22.851562 -46.601562 21.5625 -47.28125 19.84375 -47.28125 C 18.820312 -47.28125 17.929688 -46.847656 17.171875 -45.984375 C 16.421875 -45.117188 15.914062 -44.070312 15.65625 -42.84375 C 15.164062 -40.257812 14.960938 -37.515625 15.046875 -34.609375 C 15.128906 -31.703125 15.171875 -28.796875 15.171875 -25.890625 Z M 15.171875 -25.890625 "/></g></g></g><g fill="#fe8995" fill-opacity="1"><g transform="translate(211.528029, 105.113016)"><g><path d="M 15.65625 0.234375 C 14.738281 0.078125 13.804688 -0.0351562 12.859375 -0.109375 C 11.921875 -0.191406 10.726562 -0.234375 9.28125 -0.234375 C 7.9375 -0.234375 6.789062 -0.191406 5.84375 -0.109375 C 4.90625 -0.0351562 4.0625 0.0507812 3.3125 0.15625 C 2.550781 0.269531 1.984375 0.140625 1.609375 -0.234375 C 1.234375 -0.617188 1.128906 -1.1875 1.296875 -1.9375 C 1.617188 -3.5 1.96875 -5.609375 2.34375 -8.265625 C 2.71875 -10.929688 3.050781 -13.984375 3.34375 -17.421875 C 3.644531 -20.867188 3.796875 -24.472656 3.796875 -28.234375 C 3.796875 -31.992188 3.644531 -35.59375 3.34375 -39.03125 C 3.050781 -42.476562 2.71875 -45.5625 2.34375 -48.28125 C 1.96875 -51 1.617188 -53.109375 1.296875 -54.609375 C 0.972656 -56.171875 1.644531 -56.875 3.3125 -56.71875 C 5.132812 -56.5 6.734375 -56.414062 8.109375 -56.46875 C 9.484375 -56.519531 10.878906 -56.625 12.296875 -56.78125 C 13.722656 -56.945312 15.378906 -57.03125 17.265625 -57.03125 C 23.503906 -56.976562 28.25 -55.378906 31.5 -52.234375 C 34.757812 -49.085938 36.390625 -44.53125 36.390625 -38.5625 C 36.390625 -34.957031 35.78125 -31.941406 34.5625 -29.515625 C 33.351562 -27.097656 31.617188 -25.21875 29.359375 -23.875 C 31.566406 -22.476562 33.316406 -20.703125 34.609375 -18.546875 C 35.898438 -16.398438 36.679688 -14.570312 36.953125 -13.0625 C 37.328125 -10.96875 37.796875 -8.925781 38.359375 -6.9375 C 38.921875 -4.945312 39.445312 -3.304688 39.9375 -2.015625 C 40.414062 -0.347656 39.796875 0.398438 38.078125 0.234375 C 37.109375 0.128906 36.054688 0.0390625 34.921875 -0.03125 C 33.796875 -0.113281 32.535156 -0.15625 31.140625 -0.15625 C 29.847656 -0.15625 28.820312 -0.128906 28.0625 -0.078125 C 27.3125 -0.0234375 26.613281 0.0507812 25.96875 0.15625 C 24.519531 0.375 23.957031 -0.296875 24.28125 -1.859375 C 24.550781 -2.773438 24.765625 -3.957031 24.921875 -5.40625 C 25.085938 -6.851562 25.171875 -8.628906 25.171875 -10.734375 C 25.171875 -13.578125 24.1875 -15.765625 22.21875 -17.296875 C 20.257812 -18.835938 17.960938 -19.796875 15.328125 -20.171875 C 15.546875 -15.972656 15.878906 -12.300781 16.328125 -9.15625 C 16.785156 -6.007812 17.175781 -3.601562 17.5 -1.9375 C 17.820312 -0.320312 17.207031 0.398438 15.65625 0.234375 Z M 15.171875 -25.890625 L 17.265625 -25.890625 C 19.628906 -25.890625 21.507812 -26.9375 22.90625 -29.03125 C 24.3125 -31.132812 25.015625 -34.3125 25.015625 -38.5625 C 25.015625 -41.675781 24.582031 -43.90625 23.71875 -45.25 C 22.851562 -46.601562 21.5625 -47.28125 19.84375 -47.28125 C 18.820312 -47.28125 17.929688 -46.847656 17.171875 -45.984375 C 16.421875 -45.117188 15.914062 -44.070312 15.65625 -42.84375 C 15.164062 -40.257812 14.960938 -37.515625 15.046875 -34.609375 C 15.128906 -31.703125 15.171875 -28.796875 15.171875 -25.890625 Z M 15.171875 -25.890625 "/></g></g></g><g fill="#fe8995" fill-opacity="1"><g transform="translate(252.266648, 105.113016)"><g><path d="M 20.65625 1.203125 C 14.519531 1.203125 9.726562 -1.203125 6.28125 -6.015625 C 2.84375 -10.828125 1.125 -18.257812 1.125 -28.3125 C 1.125 -37.507812 2.84375 -44.703125 6.28125 -49.890625 C 9.726562 -55.085938 14.519531 -57.6875 20.65625 -57.6875 C 22.320312 -57.6875 23.71875 -57.601562 24.84375 -57.4375 C 25.976562 -57.28125 27.039062 -57.117188 28.03125 -56.953125 C 29.03125 -56.796875 30.117188 -56.742188 31.296875 -56.796875 C 32.804688 -56.898438 33.476562 -56.226562 33.3125 -54.78125 C 33.101562 -52.789062 32.941406 -50.648438 32.828125 -48.359375 C 32.722656 -46.078125 32.695312 -43.882812 32.75 -41.78125 C 32.800781 -40.875 32.613281 -40.363281 32.1875 -40.25 C 31.757812 -40.144531 31.25 -40.46875 30.65625 -41.21875 C 27.914062 -44.664062 25.226562 -46.390625 22.59375 -46.390625 C 20.113281 -46.390625 18.082031 -44.722656 16.5 -41.390625 C 14.914062 -38.054688 14.125 -33.59375 14.125 -28 C 14.125 -24.65625 14.484375 -21.625 15.203125 -18.90625 C 15.929688 -16.195312 16.941406 -14.046875 18.234375 -12.453125 C 19.523438 -10.867188 20.976562 -10.078125 22.59375 -10.078125 C 23.988281 -10.078125 25.34375 -10.476562 26.65625 -11.28125 C 27.976562 -12.09375 29.421875 -13.550781 30.984375 -15.65625 C 31.566406 -16.40625 32.019531 -16.738281 32.34375 -16.65625 C 32.664062 -16.570312 32.800781 -16.078125 32.75 -15.171875 C 32.695312 -13.015625 32.738281 -10.753906 32.875 -8.390625 C 33.007812 -6.023438 33.15625 -3.789062 33.3125 -1.6875 C 33.476562 -0.238281 32.78125 0.429688 31.21875 0.328125 C 30.09375 0.265625 29.03125 0.3125 28.03125 0.46875 C 27.039062 0.632812 25.976562 0.796875 24.84375 0.953125 C 23.71875 1.117188 22.320312 1.203125 20.65625 1.203125 Z M 20.65625 1.203125 "/></g></g></g><g fill="#fe8995" fill-opacity="1"><g transform="translate(286.874304, 105.113016)"><g><path d="M 15.171875 0.234375 C 14.304688 0.078125 13.429688 -0.0351562 12.546875 -0.109375 C 11.660156 -0.191406 10.546875 -0.234375 9.203125 -0.234375 C 7.960938 -0.234375 6.894531 -0.191406 6 -0.109375 C 5.113281 -0.0351562 4.296875 0.0507812 3.546875 0.15625 C 1.929688 0.425781 1.257812 -0.269531 1.53125 -1.9375 C 1.800781 -3.4375 2.097656 -5.53125 2.421875 -8.21875 C 2.742188 -10.914062 3.035156 -13.984375 3.296875 -17.421875 C 3.566406 -20.867188 3.703125 -24.472656 3.703125 -28.234375 C 3.703125 -31.992188 3.566406 -35.59375 3.296875 -39.03125 C 3.035156 -42.476562 2.742188 -45.546875 2.421875 -48.234375 C 2.097656 -50.929688 1.800781 -53.03125 1.53125 -54.53125 C 1.257812 -56.195312 1.929688 -56.894531 3.546875 -56.625 C 4.296875 -56.519531 5.113281 -56.425781 6 -56.34375 C 6.894531 -56.269531 7.960938 -56.234375 9.203125 -56.234375 C 10.546875 -56.234375 11.660156 -56.269531 12.546875 -56.34375 C 13.429688 -56.425781 14.304688 -56.550781 15.171875 -56.71875 C 16.785156 -56.875 17.457031 -56.171875 17.1875 -54.609375 C 16.96875 -53.109375 16.679688 -51.007812 16.328125 -48.3125 C 15.984375 -45.625 15.675781 -42.5625 15.40625 -39.125 C 15.132812 -35.6875 15 -32.054688 15 -28.234375 C 15 -24.472656 15.132812 -20.867188 15.40625 -17.421875 C 15.675781 -13.984375 15.984375 -10.914062 16.328125 -8.21875 C 16.679688 -5.53125 16.96875 -3.410156 17.1875 -1.859375 C 17.457031 -0.296875 16.785156 0.398438 15.171875 0.234375 Z M 15.171875 0.234375 "/></g></g></g><g fill="#fe8995" fill-opacity="1"><g transform="translate(305.589858, 105.113016)"><g><path d="M 20.65625 1.203125 C 14.46875 1.203125 9.648438 -1.203125 6.203125 -6.015625 C 2.765625 -10.828125 1.046875 -18.257812 1.046875 -28.3125 C 1.046875 -37.507812 2.765625 -44.703125 6.203125 -49.890625 C 9.648438 -55.085938 14.46875 -57.6875 20.65625 -57.6875 C 26.832031 -57.6875 31.628906 -55.085938 35.046875 -49.890625 C 38.460938 -44.703125 40.171875 -37.507812 40.171875 -28.3125 C 40.171875 -18.257812 38.460938 -10.828125 35.046875 -6.015625 C 31.628906 -1.203125 26.832031 1.203125 20.65625 1.203125 Z M 20.578125 -10.078125 C 21.921875 -10.078125 23.078125 -10.867188 24.046875 -12.453125 C 25.015625 -14.046875 25.765625 -16.195312 26.296875 -18.90625 C 26.835938 -21.625 27.109375 -24.65625 27.109375 -28 C 27.109375 -33.59375 26.515625 -38.054688 25.328125 -41.390625 C 24.148438 -44.722656 22.566406 -46.390625 20.578125 -46.390625 C 18.585938 -46.390625 17 -44.722656 15.8125 -41.390625 C 14.625 -38.054688 14.03125 -33.59375 14.03125 -28 C 14.03125 -24.65625 14.300781 -21.625 14.84375 -18.90625 C 15.382812 -16.195312 16.148438 -14.046875 17.140625 -12.453125 C 18.140625 -10.867188 19.285156 -10.078125 20.578125 -10.078125 Z M 20.578125 -10.078125 "/></g></g></g><path stroke-linecap="butt" transform="matrix(0.732709, -0.000000000000000909, 0.000000000000000909, 0.732709, 54.515714, 130.670077)" fill="none" stroke-linejoin="miter" d="M -0.000121841 2.00167 L 47.543875 2.00167 " stroke="#000000" stroke-width="4" stroke-opacity="1" stroke-miterlimit="4"/><path stroke-linecap="butt" transform="matrix(0.732709, 0.000000000000001335, -0.000000000000001335, 0.732709, 98.056285, 130.670077)" fill="none" stroke-linejoin="miter" d="M -0.00217976 2.00167 L 31.190905 2.00167 " stroke="#000000" stroke-width="4" stroke-opacity="1" stroke-miterlimit="4"/><path stroke-linecap="butt" transform="matrix(-0.732709, 0.00000000127882, -0.00000000127882, -0.732709, 336.769264, 133.600914)" fill="none" stroke-linejoin="miter" d="M -0.000364814 1.99833 L 47.543632 1.99833 " stroke="#000000" stroke-width="4" stroke-opacity="1" stroke-miterlimit="4"/><path stroke-linecap="butt" transform="matrix(-0.732709, -0.00000000127882, 0.00000000127882, -0.732709, 293.233428, 132.135497)" fill="none" stroke-linejoin="miter" d="M -0.00129223 1.997547 L 31.191792 1.997547 " stroke="#000000" stroke-width="4" stroke-opacity="1" stroke-miterlimit="4"/><g fill="#000000" fill-opacity="1"><g transform="translate(132.851662, 133.967266)"><g><path d="M 6.671875 -8.625 L 6.625 -6.0625 L 4.828125 -5.984375 L 4.359375 -0.28125 L 1.8125 -0.140625 L 1.828125 -5.859375 L 0.03125 -5.765625 L 0.109375 -8.609375 Z M 6.671875 -8.625 "/></g></g></g><g fill="#000000" fill-opacity="1"><g transform="translate(139.552752, 133.967266)"><g><path d="M 3.453125 -8.484375 L 3.03125 -0.28125 L 0.484375 -0.140625 L 0.25 -8.3125 Z M 3.453125 -8.484375 "/></g></g></g><g fill="#000000" fill-opacity="1"><g transform="translate(143.186526, 133.967266)"><g><path d="M 7.03125 -4.875 C 7.03125 -4.519531 7.007812 -4.171875 6.96875 -3.828125 C 6.28125 -3.773438 5.59375 -3.695312 4.90625 -3.59375 C 4.226562 -3.5 3.550781 -3.40625 2.875 -3.3125 C 2.976562 -3.019531 3.140625 -2.785156 3.359375 -2.609375 C 3.585938 -2.441406 3.859375 -2.359375 4.171875 -2.359375 C 4.328125 -2.359375 4.5 -2.390625 4.6875 -2.453125 C 4.882812 -2.515625 5.078125 -2.585938 5.265625 -2.671875 C 5.453125 -2.765625 5.628906 -2.863281 5.796875 -2.96875 C 5.972656 -3.070312 6.125 -3.164062 6.25 -3.25 L 5.953125 -0.515625 C 5.796875 -0.398438 5.625 -0.296875 5.4375 -0.203125 C 5.257812 -0.117188 5.070312 -0.0507812 4.875 0 C 4.6875 0.0507812 4.488281 0.0859375 4.28125 0.109375 C 4.082031 0.128906 3.882812 0.140625 3.6875 0.140625 C 3.289062 0.140625 2.925781 0.0859375 2.59375 -0.015625 C 2.269531 -0.128906 1.972656 -0.28125 1.703125 -0.46875 C 1.441406 -0.664062 1.207031 -0.894531 1 -1.15625 C 0.800781 -1.425781 0.632812 -1.71875 0.5 -2.03125 C 0.375 -2.34375 0.273438 -2.671875 0.203125 -3.015625 C 0.140625 -3.367188 0.109375 -3.726562 0.109375 -4.09375 C 0.109375 -4.457031 0.140625 -4.828125 0.203125 -5.203125 C 0.273438 -5.578125 0.378906 -5.9375 0.515625 -6.28125 C 0.648438 -6.632812 0.820312 -6.957031 1.03125 -7.25 C 1.25 -7.539062 1.5 -7.796875 1.78125 -8.015625 C 2.0625 -8.242188 2.378906 -8.421875 2.734375 -8.546875 C 3.085938 -8.671875 3.476562 -8.734375 3.90625 -8.734375 C 4.269531 -8.734375 4.597656 -8.679688 4.890625 -8.578125 C 5.179688 -8.484375 5.441406 -8.347656 5.671875 -8.171875 C 5.910156 -7.992188 6.113281 -7.785156 6.28125 -7.546875 C 6.457031 -7.304688 6.597656 -7.039062 6.703125 -6.75 C 6.816406 -6.46875 6.898438 -6.164062 6.953125 -5.84375 C 7.003906 -5.519531 7.03125 -5.195312 7.03125 -4.875 Z M 4.625 -5.1875 C 4.625 -5.300781 4.609375 -5.414062 4.578125 -5.53125 C 4.554688 -5.644531 4.519531 -5.75 4.46875 -5.84375 C 4.414062 -5.945312 4.34375 -6.03125 4.25 -6.09375 C 4.164062 -6.15625 4.054688 -6.1875 3.921875 -6.1875 C 3.765625 -6.1875 3.625 -6.140625 3.5 -6.046875 C 3.375 -5.960938 3.265625 -5.851562 3.171875 -5.71875 C 3.085938 -5.59375 3.015625 -5.453125 2.953125 -5.296875 C 2.898438 -5.148438 2.863281 -5.007812 2.84375 -4.875 L 4.625 -5.046875 Z M 4.625 -5.1875 "/></g></g></g><g fill="#000000" fill-opacity="1"><g transform="translate(150.303421, 133.967266)"><g><path d="M 7.78125 -3.046875 C 7.78125 -2.597656 7.773438 -2.148438 7.765625 -1.703125 C 7.753906 -1.253906 7.742188 -0.804688 7.734375 -0.359375 L 4.25 -0.421875 C 4.375 -1.128906 4.476562 -1.835938 4.5625 -2.546875 C 4.65625 -3.253906 4.703125 -3.972656 4.703125 -4.703125 C 4.703125 -4.753906 4.695312 -4.835938 4.6875 -4.953125 C 4.6875 -5.066406 4.679688 -5.195312 4.671875 -5.34375 C 4.660156 -5.488281 4.644531 -5.640625 4.625 -5.796875 C 4.601562 -5.953125 4.570312 -6.09375 4.53125 -6.21875 C 4.488281 -6.351562 4.441406 -6.460938 4.390625 -6.546875 C 4.335938 -6.628906 4.269531 -6.671875 4.1875 -6.671875 C 4.050781 -6.671875 3.9375 -6.628906 3.84375 -6.546875 C 3.75 -6.460938 3.671875 -6.359375 3.609375 -6.234375 C 3.546875 -6.109375 3.492188 -5.96875 3.453125 -5.8125 C 3.421875 -5.65625 3.394531 -5.5 3.375 -5.34375 C 3.363281 -5.1875 3.351562 -5.035156 3.34375 -4.890625 C 3.34375 -4.753906 3.34375 -4.644531 3.34375 -4.5625 C 3.320312 -3.84375 3.300781 -3.132812 3.28125 -2.4375 C 3.269531 -1.738281 3.257812 -1.03125 3.25 -0.3125 L 0.171875 -0.1875 C 0.253906 -1.601562 0.332031 -3.007812 0.40625 -4.40625 C 0.476562 -5.8125 0.535156 -7.222656 0.578125 -8.640625 L 3.421875 -8.78125 L 3.40625 -7.828125 C 3.507812 -7.960938 3.625 -8.085938 3.75 -8.203125 C 3.882812 -8.328125 4.023438 -8.429688 4.171875 -8.515625 C 4.328125 -8.609375 4.488281 -8.675781 4.65625 -8.71875 C 4.820312 -8.769531 5 -8.796875 5.1875 -8.796875 C 5.53125 -8.796875 5.828125 -8.738281 6.078125 -8.625 C 6.335938 -8.519531 6.554688 -8.367188 6.734375 -8.171875 C 6.921875 -7.984375 7.078125 -7.753906 7.203125 -7.484375 C 7.328125 -7.222656 7.425781 -6.941406 7.5 -6.640625 C 7.582031 -6.347656 7.644531 -6.039062 7.6875 -5.71875 C 7.726562 -5.394531 7.753906 -5.078125 7.765625 -4.765625 C 7.773438 -4.453125 7.78125 -4.144531 7.78125 -3.84375 C 7.78125 -3.550781 7.78125 -3.285156 7.78125 -3.046875 Z M 7.78125 -3.046875 "/></g></g></g><g fill="#000000" fill-opacity="1"><g transform="translate(158.348344, 133.967266)"><g><path d="M 7.140625 -4.78125 C 7.140625 -4.21875 7.066406 -3.710938 6.921875 -3.265625 C 6.773438 -2.828125 6.570312 -2.4375 6.3125 -2.09375 C 6.050781 -1.75 5.742188 -1.453125 5.390625 -1.203125 C 5.035156 -0.960938 4.644531 -0.765625 4.21875 -0.609375 C 3.789062 -0.460938 3.335938 -0.351562 2.859375 -0.28125 C 2.378906 -0.207031 1.882812 -0.171875 1.375 -0.171875 C 1.1875 -0.171875 1 -0.175781 0.8125 -0.1875 C 0.632812 -0.195312 0.453125 -0.210938 0.265625 -0.234375 L 0.4375 -8.078125 C 0.875 -8.210938 1.328125 -8.3125 1.796875 -8.375 C 2.265625 -8.4375 2.726562 -8.46875 3.1875 -8.46875 C 3.769531 -8.46875 4.300781 -8.382812 4.78125 -8.21875 C 5.257812 -8.0625 5.671875 -7.828125 6.015625 -7.515625 C 6.367188 -7.203125 6.644531 -6.816406 6.84375 -6.359375 C 7.039062 -5.898438 7.140625 -5.375 7.140625 -4.78125 Z M 3.03125 -2.46875 C 3.28125 -2.507812 3.503906 -2.582031 3.703125 -2.6875 C 3.898438 -2.800781 4.070312 -2.9375 4.21875 -3.09375 C 4.363281 -3.257812 4.472656 -3.445312 4.546875 -3.65625 C 4.628906 -3.863281 4.671875 -4.082031 4.671875 -4.3125 C 4.671875 -4.539062 4.644531 -4.753906 4.59375 -4.953125 C 4.539062 -5.148438 4.457031 -5.320312 4.34375 -5.46875 C 4.238281 -5.625 4.097656 -5.742188 3.921875 -5.828125 C 3.753906 -5.910156 3.539062 -5.957031 3.28125 -5.96875 Z M 3.03125 -2.46875 "/></g></g></g><g fill="#000000" fill-opacity="1"><g transform="translate(165.549605, 133.967266)"><g><path d="M 7.90625 -0.515625 L 4.921875 -0.125 L 4.5625 -1.5 L 3.1875 -1.5 L 2.875 -0.125 L -0.1875 -0.4375 L 2.203125 -8.46875 L 5.5625 -8.625 Z M 4.34375 -3.34375 L 3.875 -5.4375 L 3.4375 -3.34375 Z M 4.34375 -3.34375 "/></g></g></g><g fill="#000000" fill-opacity="1"><g transform="translate(173.275142, 133.967266)"><g/></g></g><g fill="#000000" fill-opacity="1"><g transform="translate(175.685606, 133.967266)"><g><path d="M 7.140625 -4.78125 C 7.140625 -4.21875 7.066406 -3.710938 6.921875 -3.265625 C 6.773438 -2.828125 6.570312 -2.4375 6.3125 -2.09375 C 6.050781 -1.75 5.742188 -1.453125 5.390625 -1.203125 C 5.035156 -0.960938 4.644531 -0.765625 4.21875 -0.609375 C 3.789062 -0.460938 3.335938 -0.351562 2.859375 -0.28125 C 2.378906 -0.207031 1.882812 -0.171875 1.375 -0.171875 C 1.1875 -0.171875 1 -0.175781 0.8125 -0.1875 C 0.632812 -0.195312 0.453125 -0.210938 0.265625 -0.234375 L 0.4375 -8.078125 C 0.875 -8.210938 1.328125 -8.3125 1.796875 -8.375 C 2.265625 -8.4375 2.726562 -8.46875 3.1875 -8.46875 C 3.769531 -8.46875 4.300781 -8.382812 4.78125 -8.21875 C 5.257812 -8.0625 5.671875 -7.828125 6.015625 -7.515625 C 6.367188 -7.203125 6.644531 -6.816406 6.84375 -6.359375 C 7.039062 -5.898438 7.140625 -5.375 7.140625 -4.78125 Z M 3.03125 -2.46875 C 3.28125 -2.507812 3.503906 -2.582031 3.703125 -2.6875 C 3.898438 -2.800781 4.070312 -2.9375 4.21875 -3.09375 C 4.363281 -3.257812 4.472656 -3.445312 4.546875 -3.65625 C 4.628906 -3.863281 4.671875 -4.082031 4.671875 -4.3125 C 4.671875 -4.539062 4.644531 -4.753906 4.59375 -4.953125 C 4.539062 -5.148438 4.457031 -5.320312 4.34375 -5.46875 C 4.238281 -5.625 4.097656 -5.742188 3.921875 -5.828125 C 3.753906 -5.910156 3.539062 -5.957031 3.28125 -5.96875 Z M 3.03125 -2.46875 "/></g></g></g><g fill="#000000" fill-opacity="1"><g transform="translate(182.886867, 133.967266)"><g><path d="M 7.03125 -4.875 C 7.03125 -4.519531 7.007812 -4.171875 6.96875 -3.828125 C 6.28125 -3.773438 5.59375 -3.695312 4.90625 -3.59375 C 4.226562 -3.5 3.550781 -3.40625 2.875 -3.3125 C 2.976562 -3.019531 3.140625 -2.785156 3.359375 -2.609375 C 3.585938 -2.441406 3.859375 -2.359375 4.171875 -2.359375 C 4.328125 -2.359375 4.5 -2.390625 4.6875 -2.453125 C 4.882812 -2.515625 5.078125 -2.585938 5.265625 -2.671875 C 5.453125 -2.765625 5.628906 -2.863281 5.796875 -2.96875 C 5.972656 -3.070312 6.125 -3.164062 6.25 -3.25 L 5.953125 -0.515625 C 5.796875 -0.398438 5.625 -0.296875 5.4375 -0.203125 C 5.257812 -0.117188 5.070312 -0.0507812 4.875 0 C 4.6875 0.0507812 4.488281 0.0859375 4.28125 0.109375 C 4.082031 0.128906 3.882812 0.140625 3.6875 0.140625 C 3.289062 0.140625 2.925781 0.0859375 2.59375 -0.015625 C 2.269531 -0.128906 1.972656 -0.28125 1.703125 -0.46875 C 1.441406 -0.664062 1.207031 -0.894531 1 -1.15625 C 0.800781 -1.425781 0.632812 -1.71875 0.5 -2.03125 C 0.375 -2.34375 0.273438 -2.671875 0.203125 -3.015625 C 0.140625 -3.367188 0.109375 -3.726562 0.109375 -4.09375 C 0.109375 -4.457031 0.140625 -4.828125 0.203125 -5.203125 C 0.273438 -5.578125 0.378906 -5.9375 0.515625 -6.28125 C 0.648438 -6.632812 0.820312 -6.957031 1.03125 -7.25 C 1.25 -7.539062 1.5 -7.796875 1.78125 -8.015625 C 2.0625 -8.242188 2.378906 -8.421875 2.734375 -8.546875 C 3.085938 -8.671875 3.476562 -8.734375 3.90625 -8.734375 C 4.269531 -8.734375 4.597656 -8.679688 4.890625 -8.578125 C 5.179688 -8.484375 5.441406 -8.347656 5.671875 -8.171875 C 5.910156 -7.992188 6.113281 -7.785156 6.28125 -7.546875 C 6.457031 -7.304688 6.597656 -7.039062 6.703125 -6.75 C 6.816406 -6.46875 6.898438 -6.164062 6.953125 -5.84375 C 7.003906 -5.519531 7.03125 -5.195312 7.03125 -4.875 Z M 4.625 -5.1875 C 4.625 -5.300781 4.609375 -5.414062 4.578125 -5.53125 C 4.554688 -5.644531 4.519531 -5.75 4.46875 -5.84375 C 4.414062 -5.945312 4.34375 -6.03125 4.25 -6.09375 C 4.164062 -6.15625 4.054688 -6.1875 3.921875 -6.1875 C 3.765625 -6.1875 3.625 -6.140625 3.5 -6.046875 C 3.375 -5.960938 3.265625 -5.851562 3.171875 -5.71875 C 3.085938 -5.59375 3.015625 -5.453125 2.953125 -5.296875 C 2.898438 -5.148438 2.863281 -5.007812 2.84375 -4.875 L 4.625 -5.046875 Z M 4.625 -5.1875 "/></g></g></g><g fill="#000000" fill-opacity="1"><g transform="translate(190.003762, 133.967266)"><g/></g></g><g fill="#000000" fill-opacity="1"><g transform="translate(192.414226, 133.967266)"><g><path d="M 7.90625 -0.515625 L 4.921875 -0.125 L 4.5625 -1.5 L 3.1875 -1.5 L 2.875 -0.125 L -0.1875 -0.4375 L 2.203125 -8.46875 L 5.5625 -8.625 Z M 4.34375 -3.34375 L 3.875 -5.4375 L 3.4375 -3.34375 Z M 4.34375 -3.34375 "/></g></g></g><g fill="#000000" fill-opacity="1"><g transform="translate(200.139763, 133.967266)"><g><path d="M 7.328125 -2.140625 C 7.328125 -1.804688 7.265625 -1.519531 7.140625 -1.28125 C 7.015625 -1.039062 6.847656 -0.835938 6.640625 -0.671875 C 6.441406 -0.503906 6.207031 -0.363281 5.9375 -0.25 C 5.664062 -0.144531 5.382812 -0.0625 5.09375 0 C 4.8125 0.0507812 4.523438 0.0859375 4.234375 0.109375 C 3.941406 0.128906 3.671875 0.140625 3.421875 0.140625 C 3.171875 0.140625 2.910156 0.128906 2.640625 0.109375 C 2.367188 0.0976562 2.101562 0.0664062 1.84375 0.015625 C 1.582031 -0.0234375 1.320312 -0.0820312 1.0625 -0.15625 C 0.800781 -0.226562 0.554688 -0.320312 0.328125 -0.4375 L 0.3125 -8.203125 C 0.539062 -8.285156 0.78125 -8.363281 1.03125 -8.4375 C 1.289062 -8.519531 1.550781 -8.582031 1.8125 -8.625 C 2.070312 -8.675781 2.332031 -8.710938 2.59375 -8.734375 C 2.851562 -8.765625 3.109375 -8.78125 3.359375 -8.78125 C 3.640625 -8.78125 3.925781 -8.757812 4.21875 -8.71875 C 4.507812 -8.6875 4.789062 -8.628906 5.0625 -8.546875 C 5.332031 -8.460938 5.582031 -8.351562 5.8125 -8.21875 C 6.050781 -8.082031 6.253906 -7.914062 6.421875 -7.71875 C 6.597656 -7.53125 6.734375 -7.300781 6.828125 -7.03125 C 6.929688 -6.769531 6.984375 -6.472656 6.984375 -6.140625 C 6.984375 -5.910156 6.953125 -5.695312 6.890625 -5.5 C 6.828125 -5.300781 6.734375 -5.125 6.609375 -4.96875 C 6.492188 -4.8125 6.347656 -4.675781 6.171875 -4.5625 C 5.992188 -4.457031 5.800781 -4.378906 5.59375 -4.328125 C 5.851562 -4.253906 6.085938 -4.148438 6.296875 -4.015625 C 6.515625 -3.890625 6.695312 -3.734375 6.84375 -3.546875 C 7 -3.359375 7.117188 -3.144531 7.203125 -2.90625 C 7.285156 -2.664062 7.328125 -2.410156 7.328125 -2.140625 Z M 4.265625 -5.578125 C 4.265625 -5.691406 4.238281 -5.789062 4.1875 -5.875 C 4.132812 -5.957031 4.070312 -6.023438 4 -6.078125 C 3.9375 -6.128906 3.863281 -6.164062 3.78125 -6.1875 C 3.695312 -6.21875 3.625 -6.234375 3.5625 -6.234375 C 3.476562 -6.234375 3.398438 -6.21875 3.328125 -6.1875 C 3.253906 -6.164062 3.179688 -6.140625 3.109375 -6.109375 L 3.0625 -4.78125 C 3.15625 -4.78125 3.269531 -4.785156 3.40625 -4.796875 C 3.539062 -4.816406 3.671875 -4.851562 3.796875 -4.90625 C 3.929688 -4.957031 4.039062 -5.035156 4.125 -5.140625 C 4.21875 -5.242188 4.265625 -5.390625 4.265625 -5.578125 Z M 3.40625 -3.609375 C 3.289062 -3.609375 3.175781 -3.597656 3.0625 -3.578125 L 3.046875 -2.203125 C 3.109375 -2.191406 3.164062 -2.179688 3.21875 -2.171875 C 3.28125 -2.160156 3.335938 -2.15625 3.390625 -2.15625 C 3.472656 -2.15625 3.566406 -2.164062 3.671875 -2.1875 C 3.773438 -2.207031 3.867188 -2.242188 3.953125 -2.296875 C 4.046875 -2.347656 4.117188 -2.421875 4.171875 -2.515625 C 4.234375 -2.609375 4.265625 -2.726562 4.265625 -2.875 C 4.265625 -3.03125 4.234375 -3.15625 4.171875 -3.25 C 4.117188 -3.351562 4.046875 -3.429688 3.953125 -3.484375 C 3.867188 -3.535156 3.773438 -3.566406 3.671875 -3.578125 C 3.578125 -3.597656 3.488281 -3.609375 3.40625 -3.609375 Z M 3.40625 -3.609375 "/></g></g></g><g fill="#000000" fill-opacity="1"><g transform="translate(207.473599, 133.967266)"><g><path d="M 7.90625 -0.515625 L 4.921875 -0.125 L 4.5625 -1.5 L 3.1875 -1.5 L 2.875 -0.125 L -0.1875 -0.4375 L 2.203125 -8.46875 L 5.5625 -8.625 Z M 4.34375 -3.34375 L 3.875 -5.4375 L 3.4375 -3.34375 Z M 4.34375 -3.34375 "/></g></g></g><g fill="#000000" fill-opacity="1"><g transform="translate(215.199136, 133.967266)"><g><path d="M 7.375 -5.8125 C 7.375 -5.5 7.34375 -5.210938 7.28125 -4.953125 C 7.226562 -4.703125 7.144531 -4.46875 7.03125 -4.25 C 6.914062 -4.039062 6.765625 -3.84375 6.578125 -3.65625 C 6.390625 -3.476562 6.164062 -3.304688 5.90625 -3.140625 L 7.34375 -0.59375 L 4.640625 -0.0625 L 3.703125 -2.625 L 2.953125 -2.609375 L 2.84375 -0.09375 L 0.265625 -0.09375 C 0.285156 -1.007812 0.300781 -1.921875 0.3125 -2.828125 C 0.332031 -3.734375 0.351562 -4.644531 0.375 -5.5625 C 0.382812 -6.03125 0.394531 -6.488281 0.40625 -6.9375 C 0.414062 -7.394531 0.429688 -7.851562 0.453125 -8.3125 C 0.734375 -8.414062 1.007812 -8.5 1.28125 -8.5625 C 1.550781 -8.632812 1.820312 -8.691406 2.09375 -8.734375 C 2.375 -8.773438 2.65625 -8.800781 2.9375 -8.8125 C 3.226562 -8.820312 3.519531 -8.828125 3.8125 -8.828125 C 4.269531 -8.828125 4.710938 -8.765625 5.140625 -8.640625 C 5.566406 -8.515625 5.945312 -8.328125 6.28125 -8.078125 C 6.613281 -7.828125 6.878906 -7.507812 7.078125 -7.125 C 7.273438 -6.75 7.375 -6.3125 7.375 -5.8125 Z M 4.671875 -5.625 C 4.671875 -5.789062 4.644531 -5.941406 4.59375 -6.078125 C 4.550781 -6.222656 4.484375 -6.34375 4.390625 -6.4375 C 4.304688 -6.539062 4.195312 -6.625 4.0625 -6.6875 C 3.925781 -6.75 3.769531 -6.78125 3.59375 -6.78125 C 3.507812 -6.78125 3.425781 -6.773438 3.34375 -6.765625 C 3.269531 -6.753906 3.195312 -6.738281 3.125 -6.71875 L 3.03125 -4.46875 L 3.171875 -4.46875 C 3.347656 -4.46875 3.523438 -4.488281 3.703125 -4.53125 C 3.878906 -4.582031 4.039062 -4.648438 4.1875 -4.734375 C 4.332031 -4.828125 4.445312 -4.945312 4.53125 -5.09375 C 4.625 -5.238281 4.671875 -5.414062 4.671875 -5.625 Z M 4.671875 -5.625 "/></g></g></g><g fill="#000000" fill-opacity="1"><g transform="translate(222.6776, 133.967266)"><g><path d="M 7.375 -5.8125 C 7.375 -5.5 7.34375 -5.210938 7.28125 -4.953125 C 7.226562 -4.703125 7.144531 -4.46875 7.03125 -4.25 C 6.914062 -4.039062 6.765625 -3.84375 6.578125 -3.65625 C 6.390625 -3.476562 6.164062 -3.304688 5.90625 -3.140625 L 7.34375 -0.59375 L 4.640625 -0.0625 L 3.703125 -2.625 L 2.953125 -2.609375 L 2.84375 -0.09375 L 0.265625 -0.09375 C 0.285156 -1.007812 0.300781 -1.921875 0.3125 -2.828125 C 0.332031 -3.734375 0.351562 -4.644531 0.375 -5.5625 C 0.382812 -6.03125 0.394531 -6.488281 0.40625 -6.9375 C 0.414062 -7.394531 0.429688 -7.851562 0.453125 -8.3125 C 0.734375 -8.414062 1.007812 -8.5 1.28125 -8.5625 C 1.550781 -8.632812 1.820312 -8.691406 2.09375 -8.734375 C 2.375 -8.773438 2.65625 -8.800781 2.9375 -8.8125 C 3.226562 -8.820312 3.519531 -8.828125 3.8125 -8.828125 C 4.269531 -8.828125 4.710938 -8.765625 5.140625 -8.640625 C 5.566406 -8.515625 5.945312 -8.328125 6.28125 -8.078125 C 6.613281 -7.828125 6.878906 -7.507812 7.078125 -7.125 C 7.273438 -6.75 7.375 -6.3125 7.375 -5.8125 Z M 4.671875 -5.625 C 4.671875 -5.789062 4.644531 -5.941406 4.59375 -6.078125 C 4.550781 -6.222656 4.484375 -6.34375 4.390625 -6.4375 C 4.304688 -6.539062 4.195312 -6.625 4.0625 -6.6875 C 3.925781 -6.75 3.769531 -6.78125 3.59375 -6.78125 C 3.507812 -6.78125 3.425781 -6.773438 3.34375 -6.765625 C 3.269531 -6.753906 3.195312 -6.738281 3.125 -6.71875 L 3.03125 -4.46875 L 3.171875 -4.46875 C 3.347656 -4.46875 3.523438 -4.488281 3.703125 -4.53125 C 3.878906 -4.582031 4.039062 -4.648438 4.1875 -4.734375 C 4.332031 -4.828125 4.445312 -4.945312 4.53125 -5.09375 C 4.625 -5.238281 4.671875 -5.414062 4.671875 -5.625 Z M 4.671875 -5.625 "/></g></g></g><g fill="#000000" fill-opacity="1"><g transform="translate(230.156065, 133.967266)"><g><path d="M 7.75 -4.609375 C 7.75 -4.242188 7.707031 -3.890625 7.625 -3.546875 C 7.539062 -3.210938 7.421875 -2.894531 7.265625 -2.59375 C 7.109375 -2.300781 6.914062 -2.03125 6.6875 -1.78125 C 6.457031 -1.539062 6.203125 -1.332031 5.921875 -1.15625 C 5.640625 -0.976562 5.332031 -0.835938 5 -0.734375 C 4.664062 -0.640625 4.3125 -0.59375 3.9375 -0.59375 C 3.570312 -0.59375 3.222656 -0.640625 2.890625 -0.734375 C 2.566406 -0.828125 2.265625 -0.957031 1.984375 -1.125 C 1.703125 -1.289062 1.441406 -1.488281 1.203125 -1.71875 C 0.972656 -1.957031 0.773438 -2.21875 0.609375 -2.5 C 0.453125 -2.789062 0.328125 -3.097656 0.234375 -3.421875 C 0.148438 -3.753906 0.109375 -4.097656 0.109375 -4.453125 C 0.109375 -4.804688 0.148438 -5.148438 0.234375 -5.484375 C 0.316406 -5.816406 0.4375 -6.132812 0.59375 -6.4375 C 0.75 -6.738281 0.9375 -7.007812 1.15625 -7.25 C 1.382812 -7.5 1.640625 -7.710938 1.921875 -7.890625 C 2.203125 -8.078125 2.503906 -8.21875 2.828125 -8.3125 C 3.160156 -8.414062 3.503906 -8.46875 3.859375 -8.46875 C 4.441406 -8.46875 4.972656 -8.378906 5.453125 -8.203125 C 5.929688 -8.023438 6.34375 -7.765625 6.6875 -7.421875 C 7.03125 -7.085938 7.289062 -6.679688 7.46875 -6.203125 C 7.65625 -5.734375 7.75 -5.203125 7.75 -4.609375 Z M 5.078125 -4.453125 C 5.078125 -4.628906 5.050781 -4.796875 5 -4.953125 C 4.957031 -5.117188 4.882812 -5.265625 4.78125 -5.390625 C 4.6875 -5.523438 4.566406 -5.628906 4.421875 -5.703125 C 4.285156 -5.785156 4.125 -5.828125 3.9375 -5.828125 C 3.75 -5.828125 3.578125 -5.789062 3.421875 -5.71875 C 3.273438 -5.65625 3.148438 -5.5625 3.046875 -5.4375 C 2.941406 -5.320312 2.859375 -5.179688 2.796875 -5.015625 C 2.742188 -4.859375 2.71875 -4.691406 2.71875 -4.515625 C 2.71875 -4.347656 2.738281 -4.179688 2.78125 -4.015625 C 2.832031 -3.847656 2.90625 -3.691406 3 -3.546875 C 3.101562 -3.410156 3.222656 -3.300781 3.359375 -3.21875 C 3.503906 -3.132812 3.671875 -3.09375 3.859375 -3.09375 C 4.046875 -3.09375 4.210938 -3.128906 4.359375 -3.203125 C 4.515625 -3.285156 4.644531 -3.390625 4.75 -3.515625 C 4.851562 -3.640625 4.929688 -3.78125 4.984375 -3.9375 C 5.046875 -4.101562 5.078125 -4.273438 5.078125 -4.453125 Z M 5.078125 -4.453125 "/></g></g></g><g fill="#000000" fill-opacity="1"><g transform="translate(238.026229, 133.967266)"><g><path d="M 6.6875 -8.5 L 6.625 -5.9375 L 4.828125 -5.875 L 4.609375 -0.28125 L 2.078125 -0.140625 L 1.84375 -5.734375 L 0.046875 -5.640625 L 0.125 -8.484375 Z M 6.6875 -8.5 "/></g></g></g><g fill="#000000" fill-opacity="1"><g transform="translate(244.751424, 133.967266)"><g><path d="M 7.03125 -4.875 C 7.03125 -4.519531 7.007812 -4.171875 6.96875 -3.828125 C 6.28125 -3.773438 5.59375 -3.695312 4.90625 -3.59375 C 4.226562 -3.5 3.550781 -3.40625 2.875 -3.3125 C 2.976562 -3.019531 3.140625 -2.785156 3.359375 -2.609375 C 3.585938 -2.441406 3.859375 -2.359375 4.171875 -2.359375 C 4.328125 -2.359375 4.5 -2.390625 4.6875 -2.453125 C 4.882812 -2.515625 5.078125 -2.585938 5.265625 -2.671875 C 5.453125 -2.765625 5.628906 -2.863281 5.796875 -2.96875 C 5.972656 -3.070312 6.125 -3.164062 6.25 -3.25 L 5.953125 -0.515625 C 5.796875 -0.398438 5.625 -0.296875 5.4375 -0.203125 C 5.257812 -0.117188 5.070312 -0.0507812 4.875 0 C 4.6875 0.0507812 4.488281 0.0859375 4.28125 0.109375 C 4.082031 0.128906 3.882812 0.140625 3.6875 0.140625 C 3.289062 0.140625 2.925781 0.0859375 2.59375 -0.015625 C 2.269531 -0.128906 1.972656 -0.28125 1.703125 -0.46875 C 1.441406 -0.664062 1.207031 -0.894531 1 -1.15625 C 0.800781 -1.425781 0.632812 -1.71875 0.5 -2.03125 C 0.375 -2.34375 0.273438 -2.671875 0.203125 -3.015625 C 0.140625 -3.367188 0.109375 -3.726562 0.109375 -4.09375 C 0.109375 -4.457031 0.140625 -4.828125 0.203125 -5.203125 C 0.273438 -5.578125 0.378906 -5.9375 0.515625 -6.28125 C 0.648438 -6.632812 0.820312 -6.957031 1.03125 -7.25 C 1.25 -7.539062 1.5 -7.796875 1.78125 -8.015625 C 2.0625 -8.242188 2.378906 -8.421875 2.734375 -8.546875 C 3.085938 -8.671875 3.476562 -8.734375 3.90625 -8.734375 C 4.269531 -8.734375 4.597656 -8.679688 4.890625 -8.578125 C 5.179688 -8.484375 5.441406 -8.347656 5.671875 -8.171875 C 5.910156 -7.992188 6.113281 -7.785156 6.28125 -7.546875 C 6.457031 -7.304688 6.597656 -7.039062 6.703125 -6.75 C 6.816406 -6.46875 6.898438 -6.164062 6.953125 -5.84375 C 7.003906 -5.519531 7.03125 -5.195312 7.03125 -4.875 Z M 4.625 -5.1875 C 4.625 -5.300781 4.609375 -5.414062 4.578125 -5.53125 C 4.554688 -5.644531 4.519531 -5.75 4.46875 -5.84375 C 4.414062 -5.945312 4.34375 -6.03125 4.25 -6.09375 C 4.164062 -6.15625 4.054688 -6.1875 3.921875 -6.1875 C 3.765625 -6.1875 3.625 -6.140625 3.5 -6.046875 C 3.375 -5.960938 3.265625 -5.851562 3.171875 -5.71875 C 3.085938 -5.59375 3.015625 -5.453125 2.953125 -5.296875 C 2.898438 -5.148438 2.863281 -5.007812 2.84375 -4.875 L 4.625 -5.046875 Z M 4.625 -5.1875 "/></g></g></g><g fill="#000000" fill-opacity="1"><g transform="translate(251.868318, 133.967266)"><g><path d="M 6.484375 -3.09375 C 6.484375 -2.539062 6.382812 -2.0625 6.1875 -1.65625 C 6 -1.257812 5.738281 -0.929688 5.40625 -0.671875 C 5.082031 -0.410156 4.695312 -0.21875 4.25 -0.09375 C 3.8125 0.0195312 3.335938 0.078125 2.828125 0.078125 C 2.628906 0.078125 2.410156 0.0507812 2.171875 0 C 1.929688 -0.0507812 1.691406 -0.113281 1.453125 -0.1875 C 1.210938 -0.269531 0.976562 -0.351562 0.75 -0.4375 C 0.53125 -0.53125 0.335938 -0.617188 0.171875 -0.703125 L 0.4375 -3.0625 C 0.78125 -2.851562 1.15625 -2.695312 1.5625 -2.59375 C 1.976562 -2.488281 2.390625 -2.4375 2.796875 -2.4375 C 2.867188 -2.4375 2.957031 -2.4375 3.0625 -2.4375 C 3.175781 -2.445312 3.28125 -2.46875 3.375 -2.5 C 3.476562 -2.53125 3.5625 -2.570312 3.625 -2.625 C 3.695312 -2.6875 3.734375 -2.773438 3.734375 -2.890625 C 3.734375 -2.960938 3.707031 -3.023438 3.65625 -3.078125 C 3.613281 -3.140625 3.550781 -3.1875 3.46875 -3.21875 C 3.394531 -3.25 3.3125 -3.273438 3.21875 -3.296875 C 3.125 -3.316406 3.03125 -3.328125 2.9375 -3.328125 C 2.84375 -3.335938 2.753906 -3.34375 2.671875 -3.34375 C 2.597656 -3.34375 2.535156 -3.34375 2.484375 -3.34375 C 2.140625 -3.34375 1.820312 -3.394531 1.53125 -3.5 C 1.25 -3.613281 1.003906 -3.769531 0.796875 -3.96875 C 0.597656 -4.164062 0.441406 -4.40625 0.328125 -4.6875 C 0.222656 -4.976562 0.171875 -5.296875 0.171875 -5.640625 C 0.171875 -6.117188 0.265625 -6.546875 0.453125 -6.921875 C 0.640625 -7.296875 0.894531 -7.613281 1.21875 -7.875 C 1.539062 -8.132812 1.90625 -8.332031 2.3125 -8.46875 C 2.726562 -8.613281 3.160156 -8.6875 3.609375 -8.6875 C 3.804688 -8.6875 4.007812 -8.679688 4.21875 -8.671875 C 4.425781 -8.660156 4.628906 -8.632812 4.828125 -8.59375 C 5.035156 -8.5625 5.238281 -8.515625 5.4375 -8.453125 C 5.632812 -8.398438 5.820312 -8.332031 6 -8.25 L 5.78125 -5.796875 C 5.5 -5.890625 5.207031 -5.96875 4.90625 -6.03125 C 4.613281 -6.09375 4.320312 -6.125 4.03125 -6.125 C 3.976562 -6.125 3.910156 -6.125 3.828125 -6.125 C 3.753906 -6.125 3.671875 -6.117188 3.578125 -6.109375 C 3.484375 -6.097656 3.390625 -6.082031 3.296875 -6.0625 C 3.210938 -6.039062 3.132812 -6.007812 3.0625 -5.96875 C 2.988281 -5.9375 2.925781 -5.890625 2.875 -5.828125 C 2.832031 -5.773438 2.816406 -5.710938 2.828125 -5.640625 C 2.828125 -5.554688 2.859375 -5.488281 2.921875 -5.4375 C 2.984375 -5.382812 3.0625 -5.347656 3.15625 -5.328125 C 3.257812 -5.304688 3.367188 -5.296875 3.484375 -5.296875 C 3.609375 -5.296875 3.726562 -5.296875 3.84375 -5.296875 C 3.957031 -5.304688 4.0625 -5.3125 4.15625 -5.3125 C 4.257812 -5.320312 4.34375 -5.328125 4.40625 -5.328125 C 4.726562 -5.304688 5.019531 -5.238281 5.28125 -5.125 C 5.539062 -5.007812 5.757812 -4.851562 5.9375 -4.65625 C 6.113281 -4.46875 6.25 -4.238281 6.34375 -3.96875 C 6.4375 -3.695312 6.484375 -3.40625 6.484375 -3.09375 Z M 6.484375 -3.09375 "/></g></g></g></svg>