<svg xmlns="http://www.w3.org/2000/svg" xmlns:xlink="http://www.w3.org/1999/xlink" width="150" zoomAndPan="magnify" viewBox="0 0 112.5 56.249996" height="75" preserveAspectRatio="xMidYMid meet" version="1.0"><defs><g/><clipPath id="af991b9d9a"><path d="M 0.492188 8.355469 L 111.511719 8.355469 L 111.511719 47.742188 L 0.492188 47.742188 Z M 0.492188 8.355469 " clip-rule="nonzero"/></clipPath><clipPath id="c8ae6deb68"><path d="M 3.453125 8.355469 L 108.550781 8.355469 C 110.1875 8.355469 111.511719 9.679688 111.511719 11.3125 L 111.511719 44.78125 C 111.511719 46.417969 110.1875 47.742188 108.550781 47.742188 L 3.453125 47.742188 C 1.820312 47.742188 0.492188 46.417969 0.492188 44.78125 L 0.492188 11.3125 C 0.492188 9.679688 1.820312 8.355469 3.453125 8.355469 Z M 3.453125 8.355469 " clip-rule="nonzero"/></clipPath><clipPath id="8711580285"><path d="M 0.492188 8.355469 L 111.511719 8.355469 L 111.511719 47.582031 L 0.492188 47.582031 Z M 0.492188 8.355469 " clip-rule="nonzero"/></clipPath><clipPath id="bc4562da0b"><path d="M 3.453125 8.355469 L 108.550781 8.355469 C 110.1875 8.355469 111.511719 9.679688 111.511719 11.3125 L 111.511719 44.78125 C 111.511719 46.417969 110.1875 47.742188 108.550781 47.742188 L 3.453125 47.742188 C 1.820312 47.742188 0.492188 46.417969 0.492188 44.78125 L 0.492188 11.3125 C 0.492188 9.679688 1.820312 8.355469 3.453125 8.355469 Z M 3.453125 8.355469 " clip-rule="nonzero"/></clipPath></defs><g clip-path="url(#af991b9d9a)"><g clip-path="url(#c8ae6deb68)"><path fill="#e7e4cb" d="M 0.492188 8.355469 L 111.582031 8.355469 L 111.582031 47.742188 L 0.492188 47.742188 Z M 0.492188 8.355469 " fill-opacity="1" fill-rule="nonzero"/></g></g><g clip-path="url(#8711580285)"><g clip-path="url(#bc4562da0b)"><path stroke-linecap="butt" transform="matrix(0.740131, 0, 0, 0.740131, 0.494019, 8.353651)" fill="none" stroke-linejoin="miter" d="M 3.998082 0.00245535 L 145.996708 0.00245535 C 148.208097 0.00245535 149.997264 1.791622 149.997264 3.997734 L 149.997264 49.217738 C 149.997264 51.429128 148.208097 53.218294 145.996708 53.218294 L 3.998082 53.218294 C 1.79197 53.218294 -0.00247442 51.429128 -0.00247442 49.217738 L -0.00247442 3.997734 C -0.00247442 1.791622 1.79197 0.00245535 3.998082 0.00245535 Z M 3.998082 0.00245535 " stroke="#000000" stroke-width="2" stroke-opacity="1" stroke-miterlimit="4"/></g></g><g fill="#1c1412" fill-opacity="1"><g transform="translate(16.608928, 37.874157)"><g><path d="M 5.296875 0.078125 C 4.992188 0.0234375 4.6875 -0.0078125 4.375 -0.03125 C 4.0625 -0.0625 3.671875 -0.078125 3.203125 -0.078125 C 2.773438 -0.078125 2.40625 -0.0625 2.09375 -0.03125 C 1.789062 -0.0078125 1.503906 0.0195312 1.234375 0.0625 C 0.671875 0.15625 0.4375 -0.0859375 0.53125 -0.671875 C 0.625 -1.203125 0.726562 -1.9375 0.84375 -2.875 C 0.957031 -3.8125 1.0625 -4.878906 1.15625 -6.078125 C 1.25 -7.285156 1.296875 -8.546875 1.296875 -9.859375 C 1.296875 -11.171875 1.25 -12.425781 1.15625 -13.625 C 1.0625 -14.820312 0.957031 -15.890625 0.84375 -16.828125 C 0.726562 -17.773438 0.625 -18.507812 0.53125 -19.03125 C 0.4375 -19.613281 0.671875 -19.859375 1.234375 -19.765625 C 1.503906 -19.722656 1.789062 -19.6875 2.09375 -19.65625 C 2.40625 -19.632812 2.773438 -19.625 3.203125 -19.625 C 3.671875 -19.625 4.0625 -19.632812 4.375 -19.65625 C 4.6875 -19.6875 4.992188 -19.734375 5.296875 -19.796875 C 5.859375 -19.847656 6.09375 -19.601562 6 -19.0625 C 5.925781 -18.53125 5.828125 -17.796875 5.703125 -16.859375 C 5.578125 -15.921875 5.46875 -14.851562 5.375 -13.65625 C 5.28125 -12.457031 5.234375 -11.191406 5.234375 -9.859375 C 5.234375 -8.546875 5.28125 -7.285156 5.375 -6.078125 C 5.46875 -4.878906 5.578125 -3.8125 5.703125 -2.875 C 5.828125 -1.9375 5.925781 -1.191406 6 -0.640625 C 6.09375 -0.0976562 5.859375 0.140625 5.296875 0.078125 Z M 5.296875 0.078125 "/></g></g></g><g fill="#e7e4cb" fill-opacity="1"><g transform="translate(15.364473, 36.629702)"><g><path d="M 5.296875 0.078125 C 4.992188 0.0234375 4.6875 -0.0078125 4.375 -0.03125 C 4.0625 -0.0625 3.671875 -0.078125 3.203125 -0.078125 C 2.773438 -0.078125 2.40625 -0.0625 2.09375 -0.03125 C 1.789062 -0.0078125 1.503906 0.0195312 1.234375 0.0625 C 0.671875 0.15625 0.4375 -0.0859375 0.53125 -0.671875 C 0.625 -1.203125 0.726562 -1.9375 0.84375 -2.875 C 0.957031 -3.8125 1.0625 -4.878906 1.15625 -6.078125 C 1.25 -7.285156 1.296875 -8.546875 1.296875 -9.859375 C 1.296875 -11.171875 1.25 -12.425781 1.15625 -13.625 C 1.0625 -14.820312 0.957031 -15.890625 0.84375 -16.828125 C 0.726562 -17.773438 0.625 -18.507812 0.53125 -19.03125 C 0.4375 -19.613281 0.671875 -19.859375 1.234375 -19.765625 C 1.503906 -19.722656 1.789062 -19.6875 2.09375 -19.65625 C 2.40625 -19.632812 2.773438 -19.625 3.203125 -19.625 C 3.671875 -19.625 4.0625 -19.632812 4.375 -19.65625 C 4.6875 -19.6875 4.992188 -19.734375 5.296875 -19.796875 C 5.859375 -19.847656 6.09375 -19.601562 6 -19.0625 C 5.925781 -18.53125 5.828125 -17.796875 5.703125 -16.859375 C 5.578125 -15.921875 5.46875 -14.851562 5.375 -13.65625 C 5.28125 -12.457031 5.234375 -11.191406 5.234375 -9.859375 C 5.234375 -8.546875 5.28125 -7.285156 5.375 -6.078125 C 5.46875 -4.878906 5.578125 -3.8125 5.703125 -2.875 C 5.828125 -1.9375 5.925781 -1.191406 6 -0.640625 C 6.09375 -0.0976562 5.859375 0.140625 5.296875 0.078125 Z M 5.296875 0.078125 "/></g></g></g><g fill="#1c1412" fill-opacity="1"><g transform="translate(4.469701, 37.404331)"><g><path d="M 4.890625 0.046875 C 4.328125 0.140625 4.09375 -0.0820312 4.1875 -0.625 C 4.238281 -1.144531 4.304688 -1.859375 4.390625 -2.765625 C 4.484375 -3.671875 4.578125 -4.703125 4.671875 -5.859375 C 4.765625 -7.023438 4.828125 -8.242188 4.859375 -9.515625 C 4.898438 -10.691406 4.890625 -11.800781 4.828125 -12.84375 C 4.765625 -13.882812 4.6875 -14.8125 4.59375 -15.625 C 4.132812 -15.65625 3.613281 -15.617188 3.03125 -15.515625 C 2.457031 -15.410156 1.816406 -15.210938 1.109375 -14.921875 C 0.878906 -14.828125 0.6875 -14.828125 0.53125 -14.921875 C 0.375 -15.023438 0.304688 -15.210938 0.328125 -15.484375 C 0.359375 -16.140625 0.378906 -16.664062 0.390625 -17.0625 C 0.398438 -17.457031 0.390625 -17.898438 0.359375 -18.390625 C 0.335938 -18.648438 0.390625 -18.84375 0.515625 -18.96875 C 0.640625 -19.09375 0.820312 -19.140625 1.0625 -19.109375 C 1.601562 -19.035156 2.085938 -18.992188 2.515625 -18.984375 C 2.941406 -18.972656 3.460938 -18.96875 4.078125 -18.96875 L 9.421875 -18.96875 C 10.054688 -18.96875 10.582031 -18.972656 11 -18.984375 C 11.414062 -18.992188 11.894531 -19.035156 12.4375 -19.109375 C 12.675781 -19.140625 12.863281 -19.09375 13 -18.96875 C 13.132812 -18.851562 13.1875 -18.671875 13.15625 -18.421875 C 13.132812 -17.953125 13.117188 -17.476562 13.109375 -17 C 13.097656 -16.53125 13.113281 -16.015625 13.15625 -15.453125 C 13.164062 -15.203125 13.097656 -15.023438 12.953125 -14.921875 C 12.816406 -14.828125 12.617188 -14.828125 12.359375 -14.921875 C 10.984375 -15.460938 9.851562 -15.695312 8.96875 -15.625 C 8.875 -14.8125 8.789062 -13.882812 8.71875 -12.84375 C 8.644531 -11.800781 8.609375 -10.691406 8.609375 -9.515625 C 8.609375 -8.242188 8.648438 -7.023438 8.734375 -5.859375 C 8.816406 -4.703125 8.910156 -3.671875 9.015625 -2.765625 C 9.128906 -1.859375 9.222656 -1.144531 9.296875 -0.625 C 9.378906 -0.0820312 9.148438 0.140625 8.609375 0.046875 C 8.335938 0.015625 8.054688 -0.0078125 7.765625 -0.03125 C 7.484375 -0.0625 7.125 -0.078125 6.6875 -0.078125 C 6.269531 -0.078125 5.925781 -0.0625 5.65625 -0.03125 C 5.382812 -0.0078125 5.128906 0.015625 4.890625 0.046875 Z M 4.890625 0.046875 "/></g></g></g><g fill="#1c1412" fill-opacity="1"><g transform="translate(17.972159, 37.404331)"><g/></g></g><g fill="#1c1412" fill-opacity="1"><g transform="translate(23.405744, 37.404331)"><g><path d="M 6.921875 0.1875 C 6.304688 0.1875 5.664062 0.148438 5 0.078125 C 4.332031 0.00390625 3.707031 -0.046875 3.125 -0.078125 C 2.675781 -0.078125 2.289062 -0.0625 1.96875 -0.03125 C 1.65625 -0.0078125 1.367188 0.015625 1.109375 0.046875 C 0.859375 0.0859375 0.671875 0.046875 0.546875 -0.078125 C 0.421875 -0.203125 0.382812 -0.398438 0.4375 -0.671875 C 0.53125 -1.179688 0.644531 -1.882812 0.78125 -2.78125 C 0.914062 -3.675781 1.03125 -4.703125 1.125 -5.859375 C 1.226562 -7.023438 1.28125 -8.242188 1.28125 -9.515625 C 1.28125 -10.796875 1.226562 -12.015625 1.125 -13.171875 C 1.03125 -14.335938 0.914062 -15.375 0.78125 -16.28125 C 0.644531 -17.1875 0.53125 -17.882812 0.4375 -18.375 C 0.320312 -18.914062 0.539062 -19.164062 1.09375 -19.125 C 1.851562 -19.09375 2.707031 -19.101562 3.65625 -19.15625 C 4.601562 -19.207031 5.414062 -19.222656 6.09375 -19.203125 C 8.101562 -19.191406 9.671875 -18.671875 10.796875 -17.640625 C 11.929688 -16.617188 12.5 -15.078125 12.5 -13.015625 C 12.5 -12.078125 12.296875 -11.304688 11.890625 -10.703125 C 11.492188 -10.109375 10.988281 -9.628906 10.375 -9.265625 C 11.28125 -9.191406 12.03125 -8.789062 12.625 -8.0625 C 13.226562 -7.34375 13.53125 -6.394531 13.53125 -5.21875 C 13.53125 -3.769531 13.226562 -2.648438 12.625 -1.859375 C 12.03125 -1.066406 11.234375 -0.523438 10.234375 -0.234375 C 9.242188 0.046875 8.140625 0.1875 6.921875 0.1875 Z M 5.1875 -9.921875 L 5.8125 -9.921875 C 6.644531 -9.921875 7.328125 -10.175781 7.859375 -10.6875 C 8.398438 -11.207031 8.671875 -11.984375 8.671875 -13.015625 C 8.671875 -14.046875 8.5 -14.785156 8.15625 -15.234375 C 7.820312 -15.691406 7.410156 -15.921875 6.921875 -15.921875 C 6.523438 -15.921875 6.164062 -15.753906 5.84375 -15.421875 C 5.53125 -15.085938 5.3125 -14.628906 5.1875 -14.046875 C 5.0625 -13.410156 5.03125 -12.753906 5.09375 -12.078125 C 5.15625 -11.398438 5.1875 -10.679688 5.1875 -9.921875 Z M 7.0625 -3.15625 C 7.59375 -3.15625 8.03125 -3.34375 8.375 -3.71875 C 8.726562 -4.101562 8.90625 -4.71875 8.90625 -5.5625 C 8.90625 -6.414062 8.628906 -7.054688 8.078125 -7.484375 C 7.523438 -7.910156 6.796875 -8.125 5.890625 -8.125 L 5.25 -8.125 C 5.25 -7.488281 5.222656 -6.890625 5.171875 -6.328125 C 5.128906 -5.765625 5.179688 -5.222656 5.328125 -4.703125 C 5.453125 -4.234375 5.671875 -3.859375 5.984375 -3.578125 C 6.304688 -3.296875 6.664062 -3.15625 7.0625 -3.15625 Z M 7.0625 -3.15625 "/></g></g></g><g fill="#1c1412" fill-opacity="1"><g transform="translate(37.071214, 37.404331)"><g><path d="M 6.921875 0.40625 C 5.984375 0.40625 5.070312 0.234375 4.1875 -0.109375 C 3.300781 -0.453125 2.570312 -1.03125 2 -1.84375 C 1.425781 -2.664062 1.140625 -3.769531 1.140625 -5.15625 L 1.140625 -9.53125 C 1.140625 -10.800781 1.085938 -12.007812 0.984375 -13.15625 C 0.890625 -14.3125 0.78125 -15.34375 0.65625 -16.25 C 0.53125 -17.15625 0.410156 -17.867188 0.296875 -18.390625 C 0.203125 -18.929688 0.429688 -19.160156 0.984375 -19.078125 C 1.234375 -19.035156 1.515625 -19 1.828125 -18.96875 C 2.148438 -18.945312 2.535156 -18.9375 2.984375 -18.9375 C 3.367188 -18.9375 3.664062 -18.941406 3.875 -18.953125 C 4.082031 -18.960938 4.273438 -18.976562 4.453125 -19 C 4.640625 -19.03125 4.867188 -19.066406 5.140625 -19.109375 C 5.679688 -19.160156 5.894531 -18.921875 5.78125 -18.390625 C 5.695312 -17.921875 5.585938 -17.21875 5.453125 -16.28125 C 5.328125 -15.351562 5.210938 -14.300781 5.109375 -13.125 C 5.015625 -11.945312 4.96875 -10.75 4.96875 -9.53125 C 4.96875 -8.375 5.035156 -7.332031 5.171875 -6.40625 C 5.304688 -5.488281 5.515625 -4.753906 5.796875 -4.203125 C 6.078125 -3.660156 6.445312 -3.390625 6.90625 -3.390625 C 7.28125 -3.390625 7.59375 -3.65625 7.84375 -4.1875 C 8.101562 -4.726562 8.296875 -5.457031 8.421875 -6.375 C 8.546875 -7.289062 8.609375 -8.304688 8.609375 -9.421875 C 8.609375 -11.421875 8.507812 -13.195312 8.3125 -14.75 C 8.113281 -16.3125 7.941406 -17.507812 7.796875 -18.34375 C 7.703125 -18.914062 7.921875 -19.160156 8.453125 -19.078125 C 8.742188 -19.035156 9.039062 -19 9.34375 -18.96875 C 9.65625 -18.945312 10.035156 -18.9375 10.484375 -18.9375 C 10.890625 -18.9375 11.195312 -18.941406 11.40625 -18.953125 C 11.625 -18.960938 11.816406 -18.976562 11.984375 -19 C 12.148438 -19.03125 12.359375 -19.066406 12.609375 -19.109375 C 12.859375 -19.140625 13.046875 -19.09375 13.171875 -18.96875 C 13.304688 -18.84375 13.34375 -18.644531 13.28125 -18.375 C 13.195312 -17.863281 13.085938 -17.160156 12.953125 -16.265625 C 12.816406 -15.367188 12.703125 -14.34375 12.609375 -13.1875 C 12.515625 -12.039062 12.457031 -10.820312 12.4375 -9.53125 L 12.421875 -4.96875 C 12.421875 -3.632812 12.15625 -2.570312 11.625 -1.78125 C 11.101562 -0.988281 10.425781 -0.425781 9.59375 -0.09375 C 8.757812 0.238281 7.867188 0.40625 6.921875 0.40625 Z M 6.921875 0.40625 "/></g></g></g><g fill="#1c1412" fill-opacity="1"><g transform="translate(50.655179, 37.404331)"><g><path d="M 5.265625 0.078125 C 4.960938 0.0234375 4.648438 -0.0078125 4.328125 -0.03125 C 4.015625 -0.0625 3.613281 -0.078125 3.125 -0.078125 C 2.675781 -0.078125 2.289062 -0.0625 1.96875 -0.03125 C 1.65625 -0.0078125 1.367188 0.015625 1.109375 0.046875 C 0.859375 0.0859375 0.671875 0.046875 0.546875 -0.078125 C 0.421875 -0.203125 0.382812 -0.394531 0.4375 -0.65625 C 0.539062 -1.175781 0.65625 -1.882812 0.78125 -2.78125 C 0.914062 -3.675781 1.03125 -4.703125 1.125 -5.859375 C 1.226562 -7.023438 1.28125 -8.242188 1.28125 -9.515625 C 1.28125 -10.773438 1.226562 -11.984375 1.125 -13.140625 C 1.03125 -14.304688 0.914062 -15.347656 0.78125 -16.265625 C 0.65625 -17.179688 0.539062 -17.890625 0.4375 -18.390625 C 0.320312 -18.921875 0.546875 -19.160156 1.109375 -19.109375 C 1.722656 -19.035156 2.257812 -19.003906 2.71875 -19.015625 C 3.1875 -19.035156 3.660156 -19.070312 4.140625 -19.125 C 4.617188 -19.175781 5.175781 -19.203125 5.8125 -19.203125 C 7.914062 -19.191406 9.515625 -18.65625 10.609375 -17.59375 C 11.703125 -16.53125 12.25 -14.992188 12.25 -12.984375 C 12.25 -11.773438 12.046875 -10.757812 11.640625 -9.9375 C 11.234375 -9.125 10.648438 -8.492188 9.890625 -8.046875 C 10.628906 -7.578125 11.21875 -6.976562 11.65625 -6.25 C 12.09375 -5.519531 12.351562 -4.90625 12.4375 -4.40625 C 12.570312 -3.695312 12.734375 -3.003906 12.921875 -2.328125 C 13.109375 -1.660156 13.285156 -1.109375 13.453125 -0.671875 C 13.609375 -0.117188 13.398438 0.128906 12.828125 0.078125 C 12.503906 0.046875 12.148438 0.0195312 11.765625 0 C 11.378906 -0.03125 10.953125 -0.046875 10.484375 -0.046875 C 10.054688 -0.046875 9.710938 -0.0351562 9.453125 -0.015625 C 9.203125 -0.00390625 8.96875 0.015625 8.75 0.046875 C 8.257812 0.117188 8.066406 -0.101562 8.171875 -0.625 C 8.265625 -0.9375 8.335938 -1.332031 8.390625 -1.8125 C 8.453125 -2.300781 8.484375 -2.898438 8.484375 -3.609375 C 8.484375 -4.566406 8.148438 -5.304688 7.484375 -5.828125 C 6.828125 -6.347656 6.050781 -6.671875 5.15625 -6.796875 C 5.226562 -5.378906 5.34375 -4.140625 5.5 -3.078125 C 5.65625 -2.023438 5.785156 -1.21875 5.890625 -0.65625 C 6.003906 -0.113281 5.796875 0.128906 5.265625 0.078125 Z M 5.109375 -8.71875 L 5.8125 -8.71875 C 6.613281 -8.71875 7.25 -9.070312 7.71875 -9.78125 C 8.1875 -10.488281 8.421875 -11.554688 8.421875 -12.984375 C 8.421875 -14.035156 8.273438 -14.785156 7.984375 -15.234375 C 7.691406 -15.691406 7.257812 -15.921875 6.6875 -15.921875 C 6.34375 -15.921875 6.039062 -15.773438 5.78125 -15.484375 C 5.53125 -15.191406 5.359375 -14.835938 5.265625 -14.421875 C 5.109375 -13.554688 5.039062 -12.632812 5.0625 -11.65625 C 5.09375 -10.675781 5.109375 -9.695312 5.109375 -8.71875 Z M 5.109375 -8.71875 "/></g></g></g><g fill="#1c1412" fill-opacity="1"><g transform="translate(64.374987, 37.404331)"><g><path d="M 5.265625 0.078125 C 4.960938 0.0234375 4.648438 -0.0078125 4.328125 -0.03125 C 4.015625 -0.0625 3.613281 -0.078125 3.125 -0.078125 C 2.675781 -0.078125 2.289062 -0.0625 1.96875 -0.03125 C 1.65625 -0.0078125 1.367188 0.015625 1.109375 0.046875 C 0.859375 0.0859375 0.671875 0.046875 0.546875 -0.078125 C 0.421875 -0.203125 0.382812 -0.394531 0.4375 -0.65625 C 0.539062 -1.175781 0.65625 -1.882812 0.78125 -2.78125 C 0.914062 -3.675781 1.03125 -4.703125 1.125 -5.859375 C 1.226562 -7.023438 1.28125 -8.242188 1.28125 -9.515625 C 1.28125 -10.773438 1.226562 -11.984375 1.125 -13.140625 C 1.03125 -14.304688 0.914062 -15.347656 0.78125 -16.265625 C 0.65625 -17.179688 0.539062 -17.890625 0.4375 -18.390625 C 0.320312 -18.921875 0.546875 -19.160156 1.109375 -19.109375 C 1.722656 -19.035156 2.257812 -19.003906 2.71875 -19.015625 C 3.1875 -19.035156 3.660156 -19.070312 4.140625 -19.125 C 4.617188 -19.175781 5.175781 -19.203125 5.8125 -19.203125 C 7.914062 -19.191406 9.515625 -18.65625 10.609375 -17.59375 C 11.703125 -16.53125 12.25 -14.992188 12.25 -12.984375 C 12.25 -11.773438 12.046875 -10.757812 11.640625 -9.9375 C 11.234375 -9.125 10.648438 -8.492188 9.890625 -8.046875 C 10.628906 -7.578125 11.21875 -6.976562 11.65625 -6.25 C 12.09375 -5.519531 12.351562 -4.90625 12.4375 -4.40625 C 12.570312 -3.695312 12.734375 -3.003906 12.921875 -2.328125 C 13.109375 -1.660156 13.285156 -1.109375 13.453125 -0.671875 C 13.609375 -0.117188 13.398438 0.128906 12.828125 0.078125 C 12.503906 0.046875 12.148438 0.0195312 11.765625 0 C 11.378906 -0.03125 10.953125 -0.046875 10.484375 -0.046875 C 10.054688 -0.046875 9.710938 -0.0351562 9.453125 -0.015625 C 9.203125 -0.00390625 8.96875 0.015625 8.75 0.046875 C 8.257812 0.117188 8.066406 -0.101562 8.171875 -0.625 C 8.265625 -0.9375 8.335938 -1.332031 8.390625 -1.8125 C 8.453125 -2.300781 8.484375 -2.898438 8.484375 -3.609375 C 8.484375 -4.566406 8.148438 -5.304688 7.484375 -5.828125 C 6.828125 -6.347656 6.050781 -6.671875 5.15625 -6.796875 C 5.226562 -5.378906 5.34375 -4.140625 5.5 -3.078125 C 5.65625 -2.023438 5.785156 -1.21875 5.890625 -0.65625 C 6.003906 -0.113281 5.796875 0.128906 5.265625 0.078125 Z M 5.109375 -8.71875 L 5.8125 -8.71875 C 6.613281 -8.71875 7.25 -9.070312 7.71875 -9.78125 C 8.1875 -10.488281 8.421875 -11.554688 8.421875 -12.984375 C 8.421875 -14.035156 8.273438 -14.785156 7.984375 -15.234375 C 7.691406 -15.691406 7.257812 -15.921875 6.6875 -15.921875 C 6.34375 -15.921875 6.039062 -15.773438 5.78125 -15.484375 C 5.53125 -15.191406 5.359375 -14.835938 5.265625 -14.421875 C 5.109375 -13.554688 5.039062 -12.632812 5.0625 -11.65625 C 5.09375 -10.675781 5.109375 -9.695312 5.109375 -8.71875 Z M 5.109375 -8.71875 "/></g></g></g><g fill="#1c1412" fill-opacity="1"><g transform="translate(78.094795, 37.404331)"><g><path d="M 6.953125 0.40625 C 4.890625 0.40625 3.273438 -0.398438 2.109375 -2.015625 C 0.953125 -3.640625 0.375 -6.144531 0.375 -9.53125 C 0.375 -12.632812 0.953125 -15.054688 2.109375 -16.796875 C 3.273438 -18.546875 4.890625 -19.421875 6.953125 -19.421875 C 7.515625 -19.421875 7.984375 -19.394531 8.359375 -19.34375 C 8.742188 -19.289062 9.101562 -19.238281 9.4375 -19.1875 C 9.769531 -19.132812 10.140625 -19.113281 10.546875 -19.125 C 11.046875 -19.164062 11.269531 -18.941406 11.21875 -18.453125 C 11.144531 -17.773438 11.085938 -17.050781 11.046875 -16.28125 C 11.015625 -15.519531 11.007812 -14.785156 11.03125 -14.078125 C 11.050781 -13.765625 10.988281 -13.585938 10.84375 -13.546875 C 10.695312 -13.515625 10.523438 -13.628906 10.328125 -13.890625 C 9.398438 -15.046875 8.492188 -15.625 7.609375 -15.625 C 6.773438 -15.625 6.085938 -15.0625 5.546875 -13.9375 C 5.015625 -12.8125 4.75 -11.304688 4.75 -9.421875 C 4.75 -8.304688 4.867188 -7.289062 5.109375 -6.375 C 5.359375 -5.457031 5.703125 -4.726562 6.140625 -4.1875 C 6.578125 -3.65625 7.066406 -3.390625 7.609375 -3.390625 C 8.078125 -3.390625 8.53125 -3.523438 8.96875 -3.796875 C 9.414062 -4.078125 9.90625 -4.566406 10.4375 -5.265625 C 10.632812 -5.523438 10.785156 -5.640625 10.890625 -5.609375 C 11.003906 -5.578125 11.050781 -5.410156 11.03125 -5.109375 C 11.007812 -4.378906 11.019531 -3.613281 11.0625 -2.8125 C 11.113281 -2.019531 11.164062 -1.273438 11.21875 -0.578125 C 11.269531 -0.0859375 11.035156 0.140625 10.515625 0.109375 C 10.128906 0.0859375 9.769531 0.101562 9.4375 0.15625 C 9.101562 0.21875 8.742188 0.273438 8.359375 0.328125 C 7.984375 0.378906 7.515625 0.40625 6.953125 0.40625 Z M 6.953125 0.40625 "/></g></g></g><g fill="#1c1412" fill-opacity="1"><g transform="translate(89.749839, 37.404331)"><g><path d="M 5.109375 0.078125 C 4.816406 0.0234375 4.519531 -0.0078125 4.21875 -0.03125 C 3.925781 -0.0625 3.550781 -0.078125 3.09375 -0.078125 C 2.675781 -0.078125 2.316406 -0.0625 2.015625 -0.03125 C 1.722656 -0.0078125 1.453125 0.015625 1.203125 0.046875 C 0.648438 0.140625 0.421875 -0.09375 0.515625 -0.65625 C 0.609375 -1.15625 0.707031 -1.859375 0.8125 -2.765625 C 0.925781 -3.671875 1.023438 -4.703125 1.109375 -5.859375 C 1.203125 -7.023438 1.25 -8.242188 1.25 -9.515625 C 1.25 -10.773438 1.203125 -11.984375 1.109375 -13.140625 C 1.023438 -14.304688 0.925781 -15.34375 0.8125 -16.25 C 0.707031 -17.15625 0.609375 -17.863281 0.515625 -18.375 C 0.421875 -18.925781 0.648438 -19.160156 1.203125 -19.078125 C 1.453125 -19.035156 1.722656 -19 2.015625 -18.96875 C 2.316406 -18.945312 2.675781 -18.9375 3.09375 -18.9375 C 3.550781 -18.9375 3.925781 -18.945312 4.21875 -18.96875 C 4.519531 -19 4.816406 -19.046875 5.109375 -19.109375 C 5.648438 -19.160156 5.875 -18.921875 5.78125 -18.390625 C 5.707031 -17.890625 5.613281 -17.1875 5.5 -16.28125 C 5.382812 -15.375 5.28125 -14.335938 5.1875 -13.171875 C 5.09375 -12.015625 5.046875 -10.796875 5.046875 -9.515625 C 5.046875 -8.242188 5.09375 -7.023438 5.1875 -5.859375 C 5.28125 -4.703125 5.382812 -3.671875 5.5 -2.765625 C 5.613281 -1.859375 5.707031 -1.144531 5.78125 -0.625 C 5.875 -0.101562 5.648438 0.128906 5.109375 0.078125 Z M 5.109375 0.078125 "/></g></g></g><g fill="#1c1412" fill-opacity="1"><g transform="translate(96.052798, 37.404331)"><g><path d="M 6.953125 0.40625 C 4.867188 0.40625 3.25 -0.398438 2.09375 -2.015625 C 0.9375 -3.640625 0.359375 -6.144531 0.359375 -9.53125 C 0.359375 -12.632812 0.9375 -15.054688 2.09375 -16.796875 C 3.25 -18.546875 4.867188 -19.421875 6.953125 -19.421875 C 9.035156 -19.421875 10.648438 -18.546875 11.796875 -16.796875 C 12.953125 -15.054688 13.53125 -12.632812 13.53125 -9.53125 C 13.53125 -6.144531 12.953125 -3.640625 11.796875 -2.015625 C 10.648438 -0.398438 9.035156 0.40625 6.953125 0.40625 Z M 6.921875 -3.390625 C 7.378906 -3.390625 7.769531 -3.65625 8.09375 -4.1875 C 8.425781 -4.726562 8.679688 -5.457031 8.859375 -6.375 C 9.035156 -7.289062 9.125 -8.304688 9.125 -9.421875 C 9.125 -11.304688 8.925781 -12.8125 8.53125 -13.9375 C 8.132812 -15.0625 7.597656 -15.625 6.921875 -15.625 C 6.253906 -15.625 5.722656 -15.0625 5.328125 -13.9375 C 4.929688 -12.8125 4.734375 -11.304688 4.734375 -9.421875 C 4.734375 -8.304688 4.820312 -7.289062 5 -6.375 C 5.175781 -5.457031 5.429688 -4.726562 5.765625 -4.1875 C 6.109375 -3.65625 6.492188 -3.390625 6.921875 -3.390625 Z M 6.921875 -3.390625 "/></g></g></g><g fill="#fe8995" fill-opacity="1"><g transform="translate(3.268918, 36.203548)"><g><path d="M 4.890625 0.046875 C 4.328125 0.140625 4.09375 -0.0820312 4.1875 -0.625 C 4.238281 -1.144531 4.304688 -1.859375 4.390625 -2.765625 C 4.484375 -3.671875 4.578125 -4.703125 4.671875 -5.859375 C 4.765625 -7.023438 4.828125 -8.242188 4.859375 -9.515625 C 4.898438 -10.691406 4.890625 -11.800781 4.828125 -12.84375 C 4.765625 -13.882812 4.6875 -14.8125 4.59375 -15.625 C 4.132812 -15.65625 3.613281 -15.617188 3.03125 -15.515625 C 2.457031 -15.410156 1.816406 -15.210938 1.109375 -14.921875 C 0.878906 -14.828125 0.6875 -14.828125 0.53125 -14.921875 C 0.375 -15.023438 0.304688 -15.210938 0.328125 -15.484375 C 0.359375 -16.140625 0.378906 -16.664062 0.390625 -17.0625 C 0.398438 -17.457031 0.390625 -17.898438 0.359375 -18.390625 C 0.335938 -18.648438 0.390625 -18.84375 0.515625 -18.96875 C 0.640625 -19.09375 0.820312 -19.140625 1.0625 -19.109375 C 1.601562 -19.035156 2.085938 -18.992188 2.515625 -18.984375 C 2.941406 -18.972656 3.460938 -18.96875 4.078125 -18.96875 L 9.421875 -18.96875 C 10.054688 -18.96875 10.582031 -18.972656 11 -18.984375 C 11.414062 -18.992188 11.894531 -19.035156 12.4375 -19.109375 C 12.675781 -19.140625 12.863281 -19.09375 13 -18.96875 C 13.132812 -18.851562 13.1875 -18.671875 13.15625 -18.421875 C 13.132812 -17.953125 13.117188 -17.476562 13.109375 -17 C 13.097656 -16.53125 13.113281 -16.015625 13.15625 -15.453125 C 13.164062 -15.203125 13.097656 -15.023438 12.953125 -14.921875 C 12.816406 -14.828125 12.617188 -14.828125 12.359375 -14.921875 C 10.984375 -15.460938 9.851562 -15.695312 8.96875 -15.625 C 8.875 -14.8125 8.789062 -13.882812 8.71875 -12.84375 C 8.644531 -11.800781 8.609375 -10.691406 8.609375 -9.515625 C 8.609375 -8.242188 8.648438 -7.023438 8.734375 -5.859375 C 8.816406 -4.703125 8.910156 -3.671875 9.015625 -2.765625 C 9.128906 -1.859375 9.222656 -1.144531 9.296875 -0.625 C 9.378906 -0.0820312 9.148438 0.140625 8.609375 0.046875 C 8.335938 0.015625 8.054688 -0.0078125 7.765625 -0.03125 C 7.484375 -0.0625 7.125 -0.078125 6.6875 -0.078125 C 6.269531 -0.078125 5.925781 -0.0625 5.65625 -0.03125 C 5.382812 -0.0078125 5.128906 0.015625 4.890625 0.046875 Z M 4.890625 0.046875 "/></g></g></g><g fill="#fe8995" fill-opacity="1"><g transform="translate(16.771376, 36.203548)"><g/></g></g><g fill="#fe8995" fill-opacity="1"><g transform="translate(22.204961, 36.203548)"><g><path d="M 6.921875 0.1875 C 6.304688 0.1875 5.664062 0.148438 5 0.078125 C 4.332031 0.00390625 3.707031 -0.046875 3.125 -0.078125 C 2.675781 -0.078125 2.289062 -0.0625 1.96875 -0.03125 C 1.65625 -0.0078125 1.367188 0.015625 1.109375 0.046875 C 0.859375 0.0859375 0.671875 0.046875 0.546875 -0.078125 C 0.421875 -0.203125 0.382812 -0.398438 0.4375 -0.671875 C 0.53125 -1.179688 0.644531 -1.882812 0.78125 -2.78125 C 0.914062 -3.675781 1.03125 -4.703125 1.125 -5.859375 C 1.226562 -7.023438 1.28125 -8.242188 1.28125 -9.515625 C 1.28125 -10.796875 1.226562 -12.015625 1.125 -13.171875 C 1.03125 -14.335938 0.914062 -15.375 0.78125 -16.28125 C 0.644531 -17.1875 0.53125 -17.882812 0.4375 -18.375 C 0.320312 -18.914062 0.539062 -19.164062 1.09375 -19.125 C 1.851562 -19.09375 2.707031 -19.101562 3.65625 -19.15625 C 4.601562 -19.207031 5.414062 -19.222656 6.09375 -19.203125 C 8.101562 -19.191406 9.671875 -18.671875 10.796875 -17.640625 C 11.929688 -16.617188 12.5 -15.078125 12.5 -13.015625 C 12.5 -12.078125 12.296875 -11.304688 11.890625 -10.703125 C 11.492188 -10.109375 10.988281 -9.628906 10.375 -9.265625 C 11.28125 -9.191406 12.03125 -8.789062 12.625 -8.0625 C 13.226562 -7.34375 13.53125 -6.394531 13.53125 -5.21875 C 13.53125 -3.769531 13.226562 -2.648438 12.625 -1.859375 C 12.03125 -1.066406 11.234375 -0.523438 10.234375 -0.234375 C 9.242188 0.046875 8.140625 0.1875 6.921875 0.1875 Z M 5.1875 -9.921875 L 5.8125 -9.921875 C 6.644531 -9.921875 7.328125 -10.175781 7.859375 -10.6875 C 8.398438 -11.207031 8.671875 -11.984375 8.671875 -13.015625 C 8.671875 -14.046875 8.5 -14.785156 8.15625 -15.234375 C 7.820312 -15.691406 7.410156 -15.921875 6.921875 -15.921875 C 6.523438 -15.921875 6.164062 -15.753906 5.84375 -15.421875 C 5.53125 -15.085938 5.3125 -14.628906 5.1875 -14.046875 C 5.0625 -13.410156 5.03125 -12.753906 5.09375 -12.078125 C 5.15625 -11.398438 5.1875 -10.679688 5.1875 -9.921875 Z M 7.0625 -3.15625 C 7.59375 -3.15625 8.03125 -3.34375 8.375 -3.71875 C 8.726562 -4.101562 8.90625 -4.71875 8.90625 -5.5625 C 8.90625 -6.414062 8.628906 -7.054688 8.078125 -7.484375 C 7.523438 -7.910156 6.796875 -8.125 5.890625 -8.125 L 5.25 -8.125 C 5.25 -7.488281 5.222656 -6.890625 5.171875 -6.328125 C 5.128906 -5.765625 5.179688 -5.222656 5.328125 -4.703125 C 5.453125 -4.234375 5.671875 -3.859375 5.984375 -3.578125 C 6.304688 -3.296875 6.664062 -3.15625 7.0625 -3.15625 Z M 7.0625 -3.15625 "/></g></g></g><g fill="#fe8995" fill-opacity="1"><g transform="translate(35.870431, 36.203548)"><g><path d="M 6.921875 0.40625 C 5.984375 0.40625 5.070312 0.234375 4.1875 -0.109375 C 3.300781 -0.453125 2.570312 -1.03125 2 -1.84375 C 1.425781 -2.664062 1.140625 -3.769531 1.140625 -5.15625 L 1.140625 -9.53125 C 1.140625 -10.800781 1.085938 -12.007812 0.984375 -13.15625 C 0.890625 -14.3125 0.78125 -15.34375 0.65625 -16.25 C 0.53125 -17.15625 0.410156 -17.867188 0.296875 -18.390625 C 0.203125 -18.929688 0.429688 -19.160156 0.984375 -19.078125 C 1.234375 -19.035156 1.515625 -19 1.828125 -18.96875 C 2.148438 -18.945312 2.535156 -18.9375 2.984375 -18.9375 C 3.367188 -18.9375 3.664062 -18.941406 3.875 -18.953125 C 4.082031 -18.960938 4.273438 -18.976562 4.453125 -19 C 4.640625 -19.03125 4.867188 -19.066406 5.140625 -19.109375 C 5.679688 -19.160156 5.894531 -18.921875 5.78125 -18.390625 C 5.695312 -17.921875 5.585938 -17.21875 5.453125 -16.28125 C 5.328125 -15.351562 5.210938 -14.300781 5.109375 -13.125 C 5.015625 -11.945312 4.96875 -10.75 4.96875 -9.53125 C 4.96875 -8.375 5.035156 -7.332031 5.171875 -6.40625 C 5.304688 -5.488281 5.515625 -4.753906 5.796875 -4.203125 C 6.078125 -3.660156 6.445312 -3.390625 6.90625 -3.390625 C 7.28125 -3.390625 7.59375 -3.65625 7.84375 -4.1875 C 8.101562 -4.726562 8.296875 -5.457031 8.421875 -6.375 C 8.546875 -7.289062 8.609375 -8.304688 8.609375 -9.421875 C 8.609375 -11.421875 8.507812 -13.195312 8.3125 -14.75 C 8.113281 -16.3125 7.941406 -17.507812 7.796875 -18.34375 C 7.703125 -18.914062 7.921875 -19.160156 8.453125 -19.078125 C 8.742188 -19.035156 9.039062 -19 9.34375 -18.96875 C 9.65625 -18.945312 10.035156 -18.9375 10.484375 -18.9375 C 10.890625 -18.9375 11.195312 -18.941406 11.40625 -18.953125 C 11.625 -18.960938 11.816406 -18.976562 11.984375 -19 C 12.148438 -19.03125 12.359375 -19.066406 12.609375 -19.109375 C 12.859375 -19.140625 13.046875 -19.09375 13.171875 -18.96875 C 13.304688 -18.84375 13.34375 -18.644531 13.28125 -18.375 C 13.195312 -17.863281 13.085938 -17.160156 12.953125 -16.265625 C 12.816406 -15.367188 12.703125 -14.34375 12.609375 -13.1875 C 12.515625 -12.039062 12.457031 -10.820312 12.4375 -9.53125 L 12.421875 -4.96875 C 12.421875 -3.632812 12.15625 -2.570312 11.625 -1.78125 C 11.101562 -0.988281 10.425781 -0.425781 9.59375 -0.09375 C 8.757812 0.238281 7.867188 0.40625 6.921875 0.40625 Z M 6.921875 0.40625 "/></g></g></g><g fill="#fe8995" fill-opacity="1"><g transform="translate(49.454396, 36.203548)"><g><path d="M 5.265625 0.078125 C 4.960938 0.0234375 4.648438 -0.0078125 4.328125 -0.03125 C 4.015625 -0.0625 3.613281 -0.078125 3.125 -0.078125 C 2.675781 -0.078125 2.289062 -0.0625 1.96875 -0.03125 C 1.65625 -0.0078125 1.367188 0.015625 1.109375 0.046875 C 0.859375 0.0859375 0.671875 0.046875 0.546875 -0.078125 C 0.421875 -0.203125 0.382812 -0.394531 0.4375 -0.65625 C 0.539062 -1.175781 0.65625 -1.882812 0.78125 -2.78125 C 0.914062 -3.675781 1.03125 -4.703125 1.125 -5.859375 C 1.226562 -7.023438 1.28125 -8.242188 1.28125 -9.515625 C 1.28125 -10.773438 1.226562 -11.984375 1.125 -13.140625 C 1.03125 -14.304688 0.914062 -15.347656 0.78125 -16.265625 C 0.65625 -17.179688 0.539062 -17.890625 0.4375 -18.390625 C 0.320312 -18.921875 0.546875 -19.160156 1.109375 -19.109375 C 1.722656 -19.035156 2.257812 -19.003906 2.71875 -19.015625 C 3.1875 -19.035156 3.660156 -19.070312 4.140625 -19.125 C 4.617188 -19.175781 5.175781 -19.203125 5.8125 -19.203125 C 7.914062 -19.191406 9.515625 -18.65625 10.609375 -17.59375 C 11.703125 -16.53125 12.25 -14.992188 12.25 -12.984375 C 12.25 -11.773438 12.046875 -10.757812 11.640625 -9.9375 C 11.234375 -9.125 10.648438 -8.492188 9.890625 -8.046875 C 10.628906 -7.578125 11.21875 -6.976562 11.65625 -6.25 C 12.09375 -5.519531 12.351562 -4.90625 12.4375 -4.40625 C 12.570312 -3.695312 12.734375 -3.003906 12.921875 -2.328125 C 13.109375 -1.660156 13.285156 -1.109375 13.453125 -0.671875 C 13.609375 -0.117188 13.398438 0.128906 12.828125 0.078125 C 12.503906 0.046875 12.148438 0.0195312 11.765625 0 C 11.378906 -0.03125 10.953125 -0.046875 10.484375 -0.046875 C 10.054688 -0.046875 9.710938 -0.0351562 9.453125 -0.015625 C 9.203125 -0.00390625 8.96875 0.015625 8.75 0.046875 C 8.257812 0.117188 8.066406 -0.101562 8.171875 -0.625 C 8.265625 -0.9375 8.335938 -1.332031 8.390625 -1.8125 C 8.453125 -2.300781 8.484375 -2.898438 8.484375 -3.609375 C 8.484375 -4.566406 8.148438 -5.304688 7.484375 -5.828125 C 6.828125 -6.347656 6.050781 -6.671875 5.15625 -6.796875 C 5.226562 -5.378906 5.34375 -4.140625 5.5 -3.078125 C 5.65625 -2.023438 5.785156 -1.21875 5.890625 -0.65625 C 6.003906 -0.113281 5.796875 0.128906 5.265625 0.078125 Z M 5.109375 -8.71875 L 5.8125 -8.71875 C 6.613281 -8.71875 7.25 -9.070312 7.71875 -9.78125 C 8.1875 -10.488281 8.421875 -11.554688 8.421875 -12.984375 C 8.421875 -14.035156 8.273438 -14.785156 7.984375 -15.234375 C 7.691406 -15.691406 7.257812 -15.921875 6.6875 -15.921875 C 6.34375 -15.921875 6.039062 -15.773438 5.78125 -15.484375 C 5.53125 -15.191406 5.359375 -14.835938 5.265625 -14.421875 C 5.109375 -13.554688 5.039062 -12.632812 5.0625 -11.65625 C 5.09375 -10.675781 5.109375 -9.695312 5.109375 -8.71875 Z M 5.109375 -8.71875 "/></g></g></g><g fill="#fe8995" fill-opacity="1"><g transform="translate(63.174204, 36.203548)"><g><path d="M 5.265625 0.078125 C 4.960938 0.0234375 4.648438 -0.0078125 4.328125 -0.03125 C 4.015625 -0.0625 3.613281 -0.078125 3.125 -0.078125 C 2.675781 -0.078125 2.289062 -0.0625 1.96875 -0.03125 C 1.65625 -0.0078125 1.367188 0.015625 1.109375 0.046875 C 0.859375 0.0859375 0.671875 0.046875 0.546875 -0.078125 C 0.421875 -0.203125 0.382812 -0.394531 0.4375 -0.65625 C 0.539062 -1.175781 0.65625 -1.882812 0.78125 -2.78125 C 0.914062 -3.675781 1.03125 -4.703125 1.125 -5.859375 C 1.226562 -7.023438 1.28125 -8.242188 1.28125 -9.515625 C 1.28125 -10.773438 1.226562 -11.984375 1.125 -13.140625 C 1.03125 -14.304688 0.914062 -15.347656 0.78125 -16.265625 C 0.65625 -17.179688 0.539062 -17.890625 0.4375 -18.390625 C 0.320312 -18.921875 0.546875 -19.160156 1.109375 -19.109375 C 1.722656 -19.035156 2.257812 -19.003906 2.71875 -19.015625 C 3.1875 -19.035156 3.660156 -19.070312 4.140625 -19.125 C 4.617188 -19.175781 5.175781 -19.203125 5.8125 -19.203125 C 7.914062 -19.191406 9.515625 -18.65625 10.609375 -17.59375 C 11.703125 -16.53125 12.25 -14.992188 12.25 -12.984375 C 12.25 -11.773438 12.046875 -10.757812 11.640625 -9.9375 C 11.234375 -9.125 10.648438 -8.492188 9.890625 -8.046875 C 10.628906 -7.578125 11.21875 -6.976562 11.65625 -6.25 C 12.09375 -5.519531 12.351562 -4.90625 12.4375 -4.40625 C 12.570312 -3.695312 12.734375 -3.003906 12.921875 -2.328125 C 13.109375 -1.660156 13.285156 -1.109375 13.453125 -0.671875 C 13.609375 -0.117188 13.398438 0.128906 12.828125 0.078125 C 12.503906 0.046875 12.148438 0.0195312 11.765625 0 C 11.378906 -0.03125 10.953125 -0.046875 10.484375 -0.046875 C 10.054688 -0.046875 9.710938 -0.0351562 9.453125 -0.015625 C 9.203125 -0.00390625 8.96875 0.015625 8.75 0.046875 C 8.257812 0.117188 8.066406 -0.101562 8.171875 -0.625 C 8.265625 -0.9375 8.335938 -1.332031 8.390625 -1.8125 C 8.453125 -2.300781 8.484375 -2.898438 8.484375 -3.609375 C 8.484375 -4.566406 8.148438 -5.304688 7.484375 -5.828125 C 6.828125 -6.347656 6.050781 -6.671875 5.15625 -6.796875 C 5.226562 -5.378906 5.34375 -4.140625 5.5 -3.078125 C 5.65625 -2.023438 5.785156 -1.21875 5.890625 -0.65625 C 6.003906 -0.113281 5.796875 0.128906 5.265625 0.078125 Z M 5.109375 -8.71875 L 5.8125 -8.71875 C 6.613281 -8.71875 7.25 -9.070312 7.71875 -9.78125 C 8.1875 -10.488281 8.421875 -11.554688 8.421875 -12.984375 C 8.421875 -14.035156 8.273438 -14.785156 7.984375 -15.234375 C 7.691406 -15.691406 7.257812 -15.921875 6.6875 -15.921875 C 6.34375 -15.921875 6.039062 -15.773438 5.78125 -15.484375 C 5.53125 -15.191406 5.359375 -14.835938 5.265625 -14.421875 C 5.109375 -13.554688 5.039062 -12.632812 5.0625 -11.65625 C 5.09375 -10.675781 5.109375 -9.695312 5.109375 -8.71875 Z M 5.109375 -8.71875 "/></g></g></g><g fill="#fe8995" fill-opacity="1"><g transform="translate(76.894012, 36.203548)"><g><path d="M 6.953125 0.40625 C 4.890625 0.40625 3.273438 -0.398438 2.109375 -2.015625 C 0.953125 -3.640625 0.375 -6.144531 0.375 -9.53125 C 0.375 -12.632812 0.953125 -15.054688 2.109375 -16.796875 C 3.273438 -18.546875 4.890625 -19.421875 6.953125 -19.421875 C 7.515625 -19.421875 7.984375 -19.394531 8.359375 -19.34375 C 8.742188 -19.289062 9.101562 -19.238281 9.4375 -19.1875 C 9.769531 -19.132812 10.140625 -19.113281 10.546875 -19.125 C 11.046875 -19.164062 11.269531 -18.941406 11.21875 -18.453125 C 11.144531 -17.773438 11.085938 -17.050781 11.046875 -16.28125 C 11.015625 -15.519531 11.007812 -14.785156 11.03125 -14.078125 C 11.050781 -13.765625 10.988281 -13.585938 10.84375 -13.546875 C 10.695312 -13.515625 10.523438 -13.628906 10.328125 -13.890625 C 9.398438 -15.046875 8.492188 -15.625 7.609375 -15.625 C 6.773438 -15.625 6.085938 -15.0625 5.546875 -13.9375 C 5.015625 -12.8125 4.75 -11.304688 4.75 -9.421875 C 4.75 -8.304688 4.867188 -7.289062 5.109375 -6.375 C 5.359375 -5.457031 5.703125 -4.726562 6.140625 -4.1875 C 6.578125 -3.65625 7.066406 -3.390625 7.609375 -3.390625 C 8.078125 -3.390625 8.53125 -3.523438 8.96875 -3.796875 C 9.414062 -4.078125 9.90625 -4.566406 10.4375 -5.265625 C 10.632812 -5.523438 10.785156 -5.640625 10.890625 -5.609375 C 11.003906 -5.578125 11.050781 -5.410156 11.03125 -5.109375 C 11.007812 -4.378906 11.019531 -3.613281 11.0625 -2.8125 C 11.113281 -2.019531 11.164062 -1.273438 11.21875 -0.578125 C 11.269531 -0.0859375 11.035156 0.140625 10.515625 0.109375 C 10.128906 0.0859375 9.769531 0.101562 9.4375 0.15625 C 9.101562 0.21875 8.742188 0.273438 8.359375 0.328125 C 7.984375 0.378906 7.515625 0.40625 6.953125 0.40625 Z M 6.953125 0.40625 "/></g></g></g><g fill="#fe8995" fill-opacity="1"><g transform="translate(88.549056, 36.203548)"><g><path d="M 5.109375 0.078125 C 4.816406 0.0234375 4.519531 -0.0078125 4.21875 -0.03125 C 3.925781 -0.0625 3.550781 -0.078125 3.09375 -0.078125 C 2.675781 -0.078125 2.316406 -0.0625 2.015625 -0.03125 C 1.722656 -0.0078125 1.453125 0.015625 1.203125 0.046875 C 0.648438 0.140625 0.421875 -0.09375 0.515625 -0.65625 C 0.609375 -1.15625 0.707031 -1.859375 0.8125 -2.765625 C 0.925781 -3.671875 1.023438 -4.703125 1.109375 -5.859375 C 1.203125 -7.023438 1.25 -8.242188 1.25 -9.515625 C 1.25 -10.773438 1.203125 -11.984375 1.109375 -13.140625 C 1.023438 -14.304688 0.925781 -15.34375 0.8125 -16.25 C 0.707031 -17.15625 0.609375 -17.863281 0.515625 -18.375 C 0.421875 -18.925781 0.648438 -19.160156 1.203125 -19.078125 C 1.453125 -19.035156 1.722656 -19 2.015625 -18.96875 C 2.316406 -18.945312 2.675781 -18.9375 3.09375 -18.9375 C 3.550781 -18.9375 3.925781 -18.945312 4.21875 -18.96875 C 4.519531 -19 4.816406 -19.046875 5.109375 -19.109375 C 5.648438 -19.160156 5.875 -18.921875 5.78125 -18.390625 C 5.707031 -17.890625 5.613281 -17.1875 5.5 -16.28125 C 5.382812 -15.375 5.28125 -14.335938 5.1875 -13.171875 C 5.09375 -12.015625 5.046875 -10.796875 5.046875 -9.515625 C 5.046875 -8.242188 5.09375 -7.023438 5.1875 -5.859375 C 5.28125 -4.703125 5.382812 -3.671875 5.5 -2.765625 C 5.613281 -1.859375 5.707031 -1.144531 5.78125 -0.625 C 5.875 -0.101562 5.648438 0.128906 5.109375 0.078125 Z M 5.109375 0.078125 "/></g></g></g><g fill="#fe8995" fill-opacity="1"><g transform="translate(94.852015, 36.203548)"><g><path d="M 6.953125 0.40625 C 4.867188 0.40625 3.25 -0.398438 2.09375 -2.015625 C 0.9375 -3.640625 0.359375 -6.144531 0.359375 -9.53125 C 0.359375 -12.632812 0.9375 -15.054688 2.09375 -16.796875 C 3.25 -18.546875 4.867188 -19.421875 6.953125 -19.421875 C 9.035156 -19.421875 10.648438 -18.546875 11.796875 -16.796875 C 12.953125 -15.054688 13.53125 -12.632812 13.53125 -9.53125 C 13.53125 -6.144531 12.953125 -3.640625 11.796875 -2.015625 C 10.648438 -0.398438 9.035156 0.40625 6.953125 0.40625 Z M 6.921875 -3.390625 C 7.378906 -3.390625 7.769531 -3.65625 8.09375 -4.1875 C 8.425781 -4.726562 8.679688 -5.457031 8.859375 -6.375 C 9.035156 -7.289062 9.125 -8.304688 9.125 -9.421875 C 9.125 -11.304688 8.925781 -12.8125 8.53125 -13.9375 C 8.132812 -15.0625 7.597656 -15.625 6.921875 -15.625 C 6.253906 -15.625 5.722656 -15.0625 5.328125 -13.9375 C 4.929688 -12.8125 4.734375 -11.304688 4.734375 -9.421875 C 4.734375 -8.304688 4.820312 -7.289062 5 -6.375 C 5.175781 -5.457031 5.429688 -4.726562 5.765625 -4.1875 C 6.109375 -3.65625 6.492188 -3.390625 6.921875 -3.390625 Z M 6.921875 -3.390625 "/></g></g></g></svg>